<svg width="120" height="61" viewBox="0 0 120 61" fill="none" xmlns="http://www.w3.org/2000/svg">
<g clip-path="url(#clip0_36_1942)">
<path d="M114.674 33.7242L114.298 36.701L113.365 44.0948H94.6225C94.7689 42.4376 94.9689 40.0523 95.1827 37.4773C95.2038 37.2202 95.2259 36.9614 95.2469 36.701C95.7829 30.2282 96.3694 22.9036 96.3694 22.9036L98.8334 23.3601L103.614 24.2441L105.562 24.6041L110.779 25.5702C113.379 26.0508 115.168 29.7959 114.674 33.7242Z" fill="#F2F2F2"/>
<path d="M100.497 10.9257L102.802 14.9367L98.3718 18.0588L96.482 13.1285L100.497 10.9257Z" fill="#FFB6B6"/>
<path d="M97.5626 14.7203C100.716 14.7203 103.272 12.178 103.272 9.04199C103.272 5.90593 100.716 3.36365 97.5626 3.36365C94.4092 3.36365 91.8528 5.90593 91.8528 9.04199C91.8528 12.178 94.4092 14.7203 97.5626 14.7203Z" fill="#FFB6B6"/>
<path d="M97.1526 10.3114C96.6992 9.62521 96.8772 9.2663 96.4976 9.01411C96.4976 9.01411 96.3449 8.91263 95.2518 8.85478C95.007 7.103 94.7015 6.89056 94.7015 6.89055C94.3494 6.64572 93.8268 6.72527 93.5017 6.87502C92.8142 7.19173 92.8939 7.87585 92.431 8.00677C91.7915 8.18761 90.6279 7.1681 90.5133 6.00097C90.4198 5.04891 91.0366 4.12424 91.2812 4.17315C91.5238 4.22165 92.1045 3.48436 92.418 3.49573C92.6322 3.5035 93.5071 3.12531 93.7425 3.15488C93.9995 3.18717 94.847 3.627 94.8823 3.52652C95.1277 2.82822 95.0556 2.63447 95.2638 2.4347C95.6328 2.08072 96.2365 2.32722 97.1834 2.45956C99.1319 2.73185 99.4719 2.09294 100.47 2.526C100.975 2.74476 101.397 3.33474 102.22 4.50576C103.372 6.14342 103.948 6.96225 103.952 7.9173C103.955 8.89128 103.481 8.82945 103.273 10.2713C103.041 11.8764 103.534 12.6103 102.995 13.1318C102.579 13.5348 101.734 13.6305 101.29 13.2768C100.529 12.6712 101.524 11.2099 100.683 10.1423C100.166 9.487 99.1269 9.1954 98.6509 9.51934C98.1127 9.88562 98.4092 10.9607 98.0307 11.0627C97.7066 11.15 97.2316 10.431 97.1526 10.3114Z" fill="#2F2E41"/>
<path d="M110.453 32.6758C110.294 35.3839 109.661 36.2389 109.44 39.4371C109.391 40.1393 109.362 40.9543 109.362 41.9263C109.362 42.1741 109.364 42.4137 109.364 42.6478C109.364 43.1461 109.354 43.617 109.296 44.0947C109.252 44.4761 109.176 44.8602 109.05 45.265H96.752C96.7507 45.2622 96.7507 45.2595 96.7492 45.2567C96.6773 44.9456 96.6316 44.6482 96.597 44.3632C96.5859 44.2723 96.5762 44.1829 96.5679 44.0947C96.5568 43.9915 96.5471 43.8896 96.5375 43.7891C96.5 43.3885 96.4627 43.0099 96.374 42.6478C96.2551 42.148 96.039 41.6771 95.596 41.2228C95.4147 41.0369 95.2334 40.8924 95.0562 40.7658C95.0216 40.7423 94.9883 40.7189 94.9537 40.6955C94.4636 40.3609 93.9999 40.12 93.5984 39.4371C93.5915 39.4275 93.5859 39.4165 93.5804 39.4069C93.5112 39.2871 93.3312 38.9731 93.201 38.5547C93.064 38.1196 92.9809 37.573 93.1305 37.0141C93.4863 35.6896 94.8042 35.5574 95.8813 34.2192C95.9975 34.0747 96.1124 33.9149 96.2218 33.7373C96.7091 32.9498 96.8406 32.256 96.9957 31.4312C97.0205 31.2977 97.0427 31.1655 97.0607 31.0375C97.0746 30.9411 97.0871 30.8461 97.0968 30.7525C97.1825 29.9664 97.141 29.289 97.04 28.6832C96.7105 26.6993 95.7386 25.4712 96.4253 23.691C96.6413 23.1321 96.9473 22.7122 97.2559 22.3529C97.9093 21.5915 98.5808 21.0972 98.4645 20.1143C98.3468 19.123 97.5909 18.9866 97.5066 18.1207C97.4636 17.6829 97.6075 17.2217 97.8775 16.7687V16.7674C98.7414 15.3093 100.898 13.967 102.269 14.0097C102.522 14.0166 102.746 14.073 102.933 14.1818C103.61 14.5782 103.328 15.4442 104.365 16.6586C105.136 17.5603 106.008 17.9211 106.339 18.0918C107.65 18.7719 108.716 20.7779 109.44 23.3428C109.445 23.362 109.451 23.3813 109.456 23.402C109.904 25.0087 110.219 26.8329 110.376 28.6832C110.442 29.4666 110.481 30.2541 110.489 31.0333C110.496 31.6556 110.482 32.1954 110.453 32.6758Z" fill="#D8D8D8"/>
<path d="M101.244 41.9538L100.994 42.6477L100.836 43.0828L100.47 44.0947L100.047 45.2649H97.3238L97.7806 44.0947L97.9924 43.5495L98.3441 42.6477L98.9338 41.1333L101.244 41.9538Z" fill="#FFB6B6"/>
<path d="M109.483 23.1058C109.476 23.1954 109.466 23.2945 109.456 23.4019C109.349 24.495 109.094 26.4514 108.721 28.6831C108.525 29.8602 108.295 31.1145 108.036 32.3605C107.48 35.0493 106.787 37.6968 106.005 39.437C105.865 39.751 105.721 40.0346 105.575 40.2851C105.463 40.4765 105.345 40.6651 105.222 40.851C104.823 41.4609 104.376 42.0392 103.912 42.5788C103.894 42.6022 103.873 42.6243 103.853 42.6477C103.778 42.7357 103.7 42.8225 103.623 42.9093C103.243 43.3347 102.856 43.7311 102.481 44.0946C102.024 44.538 101.583 44.9304 101.189 45.2649H96.7672L96.7492 45.2566L96.1124 44.9757C96.1124 44.9757 96.2937 44.7637 96.597 44.3631C96.6593 44.2819 96.7257 44.1924 96.7977 44.0946C96.8863 43.9748 96.9819 43.8427 97.0842 43.6995C97.2974 43.3994 97.5397 43.0469 97.7999 42.6477C98.3039 41.8753 98.8784 40.9253 99.4585 39.8253C99.525 39.6972 99.5927 39.5678 99.6606 39.437C99.662 39.4329 99.6648 39.4288 99.6661 39.4247C99.7811 39.2016 99.8946 38.9717 100.008 38.7376C100.97 36.7468 101.246 35.0947 101.325 34.5592C101.435 33.802 101.589 32.7432 101.548 31.5784C101.52 30.8103 101.408 29.9979 101.141 29.1912V29.1898C101.085 29.0205 101.023 28.8511 100.952 28.6831C100.826 28.3816 100.677 28.0842 100.499 27.791C99.7174 26.4996 99.082 26.4459 98.5766 25.0388C98.4271 24.6217 98.0879 23.68 98.1917 22.6859V22.6846C98.2043 22.562 98.225 22.4381 98.2527 22.3142V22.3128C98.2596 22.2784 98.2693 22.2427 98.2791 22.2082C98.3579 21.904 98.4881 21.6024 98.686 21.316C99.0722 20.7599 99.5996 20.4294 100.072 20.2326L100.073 20.2312C100.619 20.0054 101.089 19.9572 101.181 19.9489C103.203 19.77 104.772 21.4606 105.629 22.3844C105.96 22.741 106.263 23.0398 106.54 23.2834C108.695 25.1972 109.286 23.9746 109.44 23.3427C109.463 23.2449 109.476 23.1609 109.483 23.1058Z" fill="#D8D8D8"/>
<path d="M109.49 23.0343C109.49 23.0412 109.488 23.0646 109.483 23.1031C109.486 23.0824 109.487 23.0618 109.488 23.0425C109.488 23.0384 109.488 23.0356 109.49 23.0343Z" fill="#D8D8D8"/>
<path d="M98.495 52.0854H24.285C23.5955 52.0854 23.0335 52.643 23.0335 53.3287C23.0335 54.0157 23.5955 54.5732 24.285 54.5732H98.495C99.1843 54.5732 99.7451 54.0157 99.7451 53.3287C99.7451 52.643 99.1843 52.0854 98.495 52.0854Z" fill="#E6E6E6"/>
<path d="M82.0263 58.5122H40.7522C40.0628 58.5122 39.5021 59.0698 39.5021 59.7554C39.5021 60.441 40.0628 61 40.7522 61H82.0263C82.7157 61 83.2778 60.441 83.2778 59.7554C83.2778 59.0698 82.7157 58.5122 82.0263 58.5122Z" fill="#E6E6E6"/>
<path d="M32.5427 11.1896L37.2196 9.23218L39.2257 13.3219L34.3109 15.3169L32.5427 11.1896Z" fill="#FFB6B6"/>
<path opacity="0.1" d="M32.5427 11.1896L37.2196 9.23218L39.2257 13.3219L34.3109 15.3169L32.5427 11.1896Z" fill="black"/>
<path d="M33.2076 9.63118L37.8215 14.9179C37.8215 14.9179 34.6118 24.9927 31.4021 25.8904C28.1925 26.7881 22.2747 31.1771 22.2747 31.1771L14.8523 26.3891L18.4632 21.1024C18.4632 21.1024 27.1894 9.23218 29.4964 9.23218C31.8033 9.23218 33.2076 9.63118 33.2076 9.63118Z" fill="#D8D8D8"/>
<path d="M26.9738 44.0947H16.2335L15.5544 43.1919L12.7821 39.5062L12.1442 38.6583C12.1442 38.6583 9.7369 34.2693 10.2384 30.2793C10.7399 26.2893 15.9556 25.3916 15.9556 25.3916H16.1703L22.5555 30.9716L22.1744 36.1646L24.1964 39.5062L26.9738 44.0947Z" fill="#2F2E41"/>
<path d="M18.4331 44.0947H15.5544V39.8553L18.4331 44.0947Z" fill="#2F2E41"/>
<path d="M80.522 37.6589L80.164 39.5063L79.2753 44.0948H61.4225C61.5619 43.0663 61.7525 41.586 61.9561 39.988C61.9762 39.8285 61.9973 39.6679 62.0173 39.5063C62.5279 35.4893 63.0865 30.9437 63.0865 30.9437L65.4336 31.227L69.9873 31.7757L71.8429 31.9991L76.8119 32.5986C79.2893 32.8968 80.9934 35.221 80.522 37.6589Z" fill="#F2F2F2"/>
<path d="M105.787 44.0947H96.1039C96.2514 43.9221 96.3346 43.8224 96.3346 43.8224L99.2374 43.3456L105.218 42.364C105.218 42.364 105.491 43.0653 105.787 44.0947Z" fill="#2F2E41"/>
<path d="M64.7138 13.1848L68.9249 19.1074L61.5794 19.3255L60.791 13.7597L64.7138 13.1848Z" fill="#A0616A"/>
<path opacity="0.1" d="M64.7138 13.1848L68.9249 19.1074L61.5794 19.3255L60.791 13.7597L64.7138 13.1848Z" fill="black"/>
<path d="M43.9468 25.4559C43.4065 23.9058 42.1642 22.9266 41.1723 23.2687C40.1804 23.6109 39.8146 25.1446 40.3553 26.6952C40.5628 27.3176 40.9171 27.8815 41.3886 28.3397L43.7614 34.8789L46.8232 33.7061L44.159 27.3842C44.2441 26.7338 44.1714 26.0726 43.9468 25.4559Z" fill="#A0616A"/>
<path d="M72.4515 22.438L72.4457 28.4739L71.881 30.7033L70.7195 35.2888L69.874 39.5062L69.2441 42.6483L69.0194 43.7705C68.8499 43.8832 68.6814 43.9909 68.5129 44.0947H53.8417C53.0082 43.5969 52.5418 43.2099 52.5418 43.2099C52.5418 43.2099 52.7725 42.9944 53.0363 42.6483C53.4816 42.0638 54.0202 41.1062 53.6903 40.1915C53.621 40 53.603 39.7665 53.624 39.5062C53.7585 37.7885 55.5699 34.8838 55.5699 34.8838L55.1948 30.5726L55.0303 28.6833L56.1901 19.4714L59.9705 17.2859L60.6231 17.2231L67.0655 16.877L69.7283 17.0296L69.8497 17.0625L72.4515 22.438Z" fill="#CCCCCC"/>
<path d="M72.7376 44.0948H69.5279L69.3865 42.6485L69.3835 42.6195L70.2922 42.5577L72.6564 42.3971L72.6975 43.2629L72.7296 43.9273L72.7376 44.0948Z" fill="#FFB6B6"/>
<path d="M73.5277 23.8974L74.876 31.7647L73.7757 39.5063L73.6042 40.7112L73.3013 42.8389L73.208 43.4933L73.211 43.5641L73.2341 44.0948H69.4226L69.2822 42.6484L69.2702 42.5187L68.9833 39.5561L68.9783 39.5063L68.3694 33.224L69.563 28.6834L69.6513 28.3492V28.3483L70.1706 20.5737L69.7684 17.0406L69.7644 17.0077C69.7724 17.0127 69.7795 17.0177 69.7875 17.0227C69.8085 17.0356 69.8296 17.0486 69.8497 17.0626C72.1927 18.5409 73.5889 21.1344 73.5277 23.8974Z" fill="#CCCCCC"/>
<path d="M57.5555 20.979L56.0898 19.4713C56.0898 19.4713 52.9522 20.878 52.7958 21.6585C52.6394 22.4389 47.0995 33.9014 47.0995 33.9014L44.6893 27.4996L41.5521 29.5827C41.5521 29.5827 44.0694 39.5219 46.4237 39.9885C48.7779 40.4551 56.6684 28.2245 56.6684 28.2245L57.5555 20.979Z" fill="#CCCCCC"/>
<path d="M117.069 39.4371H2.92938C1.31382 39.4371 0 40.7451 0 42.3517C0 43.9584 1.31381 45.265 2.92938 45.265H117.069C118.685 45.265 120 43.9585 120 42.3517C120 40.745 118.685 39.4371 117.069 39.4371Z" fill="#E6E6E6"/>
<path d="M71.7835 30.556L71.5616 40.8545C71.5401 41.8514 70.7213 42.6484 69.7187 42.6484H50.6691C49.6902 42.6484 48.882 41.8874 48.8285 40.9153L48.2624 30.6168C48.2047 29.5665 49.0454 28.6835 50.103 28.6835H69.9406C70.9741 28.6835 71.8056 29.5284 71.7835 30.556Z" fill="#3F3D56"/>
<path d="M41.0311 13.6756C43.5482 13.6756 45.5888 11.6463 45.5888 9.14303C45.5888 6.63977 43.5482 4.61047 41.0311 4.61047C38.514 4.61047 36.4735 6.63977 36.4735 9.14303C36.4735 11.6463 38.514 13.6756 41.0311 13.6756Z" fill="#FFB6B6"/>
<path d="M33.4082 21.0026L33.9097 26.3891L37.3199 40.0548L34.3737 41.0818L29.3961 26.1896L28.7086 20.2046L33.4082 21.0026Z" fill="#FFB6B6"/>
<path d="M32.0516 30.556L31.8297 40.8545C31.8082 41.8514 30.9894 42.6484 29.9868 42.6484H10.9372C9.95828 42.6484 9.15006 41.8874 9.09663 40.9153L8.53051 30.6168C8.47278 29.5665 9.31352 28.6835 10.3711 28.6835H30.2087C31.2422 28.6835 32.0737 29.5284 32.0516 30.556Z" fill="#3F3D56"/>
<path d="M37.863 42.718C39.8509 42.718 41.4624 42.0091 41.4624 41.1347C41.4624 40.2603 39.8509 39.5514 37.863 39.5514C35.8751 39.5514 34.2636 40.2603 34.2636 41.1347C34.2636 42.0091 35.8751 42.718 37.863 42.718Z" fill="#FFB6B6"/>
<path d="M26.3369 21.8261L28.3931 10.9279C28.3931 10.9279 34.1103 10.1299 34.3109 12.0251C34.5115 13.9204 34.1675 23.1827 34.1675 23.1827L26.3369 21.8261Z" fill="#D8D8D8"/>
<path d="M39.1913 9.85571C39.1913 9.85571 42.0107 8.85503 43.1999 8.31661C44.3892 7.7782 46.7519 11.5336 46.8044 9.55025C46.857 7.56689 46.0406 6.73516 46.0406 6.73516C46.0406 6.73516 45.8367 2.39627 41.4412 2.93873C41.4412 2.93873 42.408 0.767942 39.2344 0.432268C36.0607 0.0965952 31.1233 7.71824 31.5655 8.85726C32.0077 9.99627 32.5378 10.9379 31.2833 12.1558C30.0288 13.3737 27.6797 20.2469 29.4669 22.0965C31.2542 23.946 31.3715 24.7486 30.1469 25.8993C28.9224 27.0499 26.0278 29.5519 29.1575 29.9862C32.2872 30.4206 28.8712 30.0962 31.2044 28.0551C33.5376 26.0141 36.9423 26.0975 35.6711 22.8228C34.3998 19.5481 36.6084 14.8556 36.3321 14.1437C36.0557 13.4318 36.9513 8.91129 36.9513 8.91129C36.9513 8.91129 39.0355 8.60676 39.1913 9.85571Z" fill="#2F2E41"/>
<path d="M62.4623 15.3284C65.2024 15.3284 67.4236 13.1193 67.4236 10.3943C67.4236 7.66936 65.2024 5.46033 62.4623 5.46033C59.7222 5.46033 57.501 7.66936 57.501 10.3943C57.501 13.1193 59.7222 15.3284 62.4623 15.3284Z" fill="#A0616A"/>
<path d="M62.8582 3.76097C62.7147 3.84431 62.5224 3.71821 62.4763 3.55937C62.4303 3.40051 62.4839 3.23186 62.5371 3.07523L62.8048 2.28673C62.9947 1.72751 63.1961 1.14876 63.6073 0.723117C64.2279 0.0806857 65.2142 -0.0827459 66.102 0.0356546C67.2422 0.187705 68.3671 0.801694 68.8973 1.817C69.4274 2.83232 69.2017 4.24904 68.2438 4.88249C69.6091 6.4387 70.085 8.17304 70.0098 10.2369C69.9347 12.3008 67.6731 14.2003 66.1982 15.6542C65.8689 15.4557 65.5694 14.5252 65.7506 14.1871C65.9317 13.8491 65.6722 13.4575 65.8965 13.1461C66.1208 12.8347 66.3085 13.3305 66.0817 13.0209C65.9386 12.8256 66.4971 12.3761 66.2844 12.2592C65.2556 11.6936 64.9134 10.4183 64.2672 9.44167C63.4878 8.2637 62.1539 7.46596 60.7422 7.33362C59.9646 7.26071 59.1432 7.39276 58.5058 7.84173C57.8685 8.2907 57.4558 9.09301 57.6036 9.85575C57.2208 9.46922 57.0303 8.90275 57.1021 8.36496C57.174 7.82716 57.5067 7.32985 57.9777 7.05617C57.6913 6.11426 57.9367 5.0308 58.6014 4.30192C59.2662 3.57305 61.9628 3.69719 62.9333 3.88902L62.8582 3.76097Z" fill="#2F2E41"/>
<path d="M63.0089 7.36218C64.2943 7.50018 65.2224 8.60747 66.0061 9.63006C66.4578 10.2195 66.931 10.8704 66.9196 11.6113C66.9081 12.3605 66.4045 13.0031 66.1638 13.713C65.7703 14.8735 66.1538 16.2542 67.0904 17.0493C66.1649 17.224 65.1645 16.5339 65.0048 15.6107C64.8188 14.536 65.638 13.4987 65.5409 12.4125C65.4555 11.4555 64.6971 10.719 64.0525 10.0035C63.4078 9.28795 62.8023 8.33845 63.0989 7.4241L63.0089 7.36218Z" fill="#2F2E41"/>
<path d="M82.2253 40.0608C80.9521 40.7809 80.2937 42.018 80.7547 42.8237C81.2157 43.6295 82.6213 43.6986 83.8949 42.978C84.4076 42.6971 84.8452 42.2982 85.1711 41.8146L90.5269 38.6955L89.0015 36.2272L83.8835 39.5642C83.2988 39.5956 82.7302 39.7659 82.2253 40.0608Z" fill="#FFB6B6"/>
<path d="M100.359 17.1877C100.199 17.1246 98.7946 16.5957 97.5125 17.294C96.0398 18.0961 95.8123 19.9272 95.7325 20.5695C95.5482 22.0531 96.0912 22.3856 96.2058 23.8876C96.4202 26.6976 96.9857 23.4919 96.0827 24.7746C95.7701 25.2185 92.5778 32.0987 90.8172 33.4463C87.3932 36.0673 85.2188 37.9131 85.2188 37.9131L87.7011 40.5947C87.7011 40.5947 91.6235 39.5553 95.0904 37.3166C98.6467 35.0202 100.425 33.872 101.8 31.6257C101.919 31.4323 104.754 26.6452 103.231 21.3517C102.884 20.1443 102.248 17.932 100.359 17.1877Z" fill="#D8D8D8"/>
<path d="M113.177 30.556L112.955 40.8545C112.933 41.8514 112.114 42.6484 111.112 42.6484H92.0623C91.0833 42.6484 90.2751 41.8874 90.2217 40.9153L89.6556 30.6168C89.5978 29.5665 90.4386 28.6835 91.4962 28.6835H111.334C112.367 28.6835 113.199 29.5284 113.177 30.556Z" fill="#3F3D56"/>
</g>
<defs>
<clipPath id="clip0_36_1942">
<rect width="120" height="61" fill="white"/>
</clipPath>
</defs>
</svg>
