<svg width="49" height="37" viewBox="0 0 49 37" fill="none" xmlns="http://www.w3.org/2000/svg">
<g clip-path="url(#clip0_345_9011)">
<path d="M29.712 11.1494C29.773 11.1522 29.8334 11.1363 29.8849 11.1039C29.9365 11.0715 29.9768 11.0242 30.0003 10.9684C30.0238 10.9125 30.0295 10.8509 30.0165 10.7917C30.0036 10.7326 29.9726 10.6788 29.9278 10.6377C29.9202 10.6082 29.9149 10.5869 29.9074 10.5573C29.91 10.5509 29.9127 10.5444 29.9155 10.538C30.1895 9.88997 31.1182 9.89444 31.3899 10.5434C31.631 11.1195 31.938 11.6965 32.0136 12.3055C32.0469 12.5748 32.0329 12.8477 31.9721 13.1121C32.5385 11.8867 32.8326 10.5549 32.8345 9.20693C32.8346 8.86867 32.8157 8.53067 32.7777 8.1945C32.7464 7.91892 32.7029 7.64529 32.6473 7.37363C32.3437 5.89963 31.6919 4.51808 30.7455 3.34242C30.2874 3.09453 29.9169 2.71332 29.684 2.25018C29.5996 2.08369 29.54 1.90597 29.507 1.72254C29.5586 1.72926 29.7018 0.948718 29.6628 0.900828C29.7348 0.792447 29.8637 0.738572 29.9424 0.632813C30.3335 0.106836 30.8724 0.198675 31.1538 0.913436C31.7548 1.21427 31.7606 1.71319 31.3918 2.19304C31.1572 2.49832 31.125 2.9114 30.9191 3.23823C30.9403 3.26512 30.9623 3.29116 30.9835 3.31805C31.3706 3.81179 31.7081 4.34196 31.9909 4.90098C31.9109 4.28098 32.0291 3.53404 32.2305 3.05255C32.4598 2.50395 32.8895 2.04192 33.268 1.56766C33.7226 0.997992 34.6548 1.24661 34.7349 1.96874C34.7356 1.97574 34.7364 1.98273 34.7371 1.98971C34.6809 2.02116 34.6259 2.05455 34.5721 2.08987C34.5044 2.13469 34.452 2.19873 34.4217 2.27359C34.3914 2.34846 34.3846 2.43066 34.4022 2.50943C34.4198 2.58819 34.4609 2.65985 34.5203 2.71501C34.5797 2.77017 34.6544 2.80627 34.7348 2.81856L34.7431 2.81982C34.723 3.02076 34.6876 3.2199 34.6372 3.41552C35.1227 5.27775 34.0745 5.95602 32.5778 5.98649C32.5448 6.00329 32.5126 6.02009 32.4795 6.03606C32.7637 6.83484 32.942 7.66688 33.0098 8.51125C33.0482 9.00941 33.046 9.50983 33.0031 10.0076L33.0056 9.98998C33.114 9.43644 33.4118 8.93698 33.8485 8.57594C34.4972 8.04746 35.4136 7.85285 36.1134 7.42806C36.4502 7.22358 36.8819 7.48783 36.8231 7.87516C36.8221 7.88135 36.8212 7.88753 36.8202 7.89372C36.7159 7.93585 36.6143 7.9844 36.5161 8.03906C36.4599 8.07052 36.4049 8.10391 36.351 8.13922C36.2834 8.18404 36.231 8.24807 36.2007 8.32294C36.1704 8.39781 36.1635 8.48001 36.1811 8.55878C36.1987 8.63755 36.2399 8.7092 36.2993 8.76437C36.3586 8.81953 36.4334 8.85562 36.5138 8.86791L36.522 8.86917C36.528 8.87001 36.5331 8.87085 36.539 8.8717C36.3607 9.29379 36.1106 9.68231 35.7994 10.0202C35.4959 11.6459 34.192 11.8001 32.7972 11.3267H32.7964C32.6433 11.9863 32.4216 12.6283 32.1348 13.2423H29.7713C29.7628 13.2163 29.7552 13.1894 29.7475 13.1634C29.9663 13.177 30.1859 13.164 30.4015 13.1247C30.2262 12.9113 30.0508 12.6962 29.8755 12.4828C29.8715 12.4788 29.8679 12.4746 29.8644 12.4702C29.7755 12.361 29.6857 12.2526 29.5968 12.1434L29.5967 12.1433C29.592 11.8084 29.6307 11.4744 29.712 11.1494L29.712 11.1494Z" fill="#F2F2F2"/>
<path d="M37.3004 5.15032C36.861 3.5612 40.4055 2.19851 41.3362 3.47822C41.4657 3.29629 41.944 3.18578 42.1634 3.24159C42.3829 3.2974 42.5675 3.43693 42.7475 3.57199C42.9951 3.76063 43.2517 3.95597 43.4037 4.22721C43.5567 4.49733 43.5804 4.86569 43.3744 5.10009C43.2112 5.28649 42.7295 5.40705 42.4842 5.45616C42.3131 5.49076 42.1691 5.51867 42.0453 5.53876C41.9328 5.37808 41.881 5.18325 41.899 4.98847C41.8156 5.04421 41.7458 5.11756 41.6944 5.20325C41.643 5.28893 41.6114 5.38483 41.6019 5.48407C41.5985 5.52537 42.985 10.5852 42.985 10.5852C42.8184 10.6792 42.6432 10.7573 42.4617 10.8185C42.1026 10.2742 41.8276 9.67975 41.6457 9.05483C41.6039 9.4727 41.6092 9.89388 41.6615 10.3106C41.6893 10.5442 41.7291 10.7763 41.7808 11.006C40.1332 11.3587 37.6549 11.2426 36.5768 9.74243C36.5766 9.73622 36.5764 9.73001 36.5762 9.72379C36.5754 9.66458 36.5538 9.6075 36.5152 9.56232C36.4766 9.51715 36.4234 9.48669 36.3646 9.47617C36.3058 9.46565 36.2452 9.47572 36.1931 9.50465C36.141 9.53359 36.1007 9.57958 36.079 9.63477C36.0529 9.70096 36.0288 9.75825 36.0073 9.80382C35.6933 8.68983 36.0996 7.4006 37.3004 5.15032Z" fill="#2F2E41"/>
<path d="M34.4967 31.7925V31.8445C34.4946 31.8272 34.4946 31.8098 34.4967 31.7925Z" fill="#2F2E41"/>
<path d="M36.1102 22.799C36.1521 22.7878 36.1948 22.7795 36.2379 22.7744C36.1884 22.7824 36.1459 22.7906 36.1102 22.799Z" fill="#2F2E41"/>
<path d="M36.0729 22.809C36.0844 22.8058 36.0972 22.8025 36.1109 22.7993C36.0982 22.8026 36.0859 22.8051 36.0729 22.809Z" fill="#2F2E41"/>
<path d="M47.9938 36.9998H41.9543C41.8682 36.9316 41.8083 36.836 41.7848 36.7292C41.7612 36.6224 41.7754 36.5108 41.825 36.4132C41.99 36.0379 41.6667 35.695 41.6667 35.695C41.557 35.5674 41.4807 35.415 41.4446 35.2512C41.4085 35.0874 41.4137 34.9173 41.4597 34.756C41.6198 34.2017 40.9927 32.6372 40.9927 32.6372C40.9927 32.6372 40.6546 34.6574 40.2404 36.9998H34.4967C34.4004 36.8372 34.3497 36.6521 34.3497 36.4637C34.3497 36.2752 34.4004 36.0901 34.4967 35.9275C34.8314 35.3646 34.4967 35.2567 34.4967 35.2567C34.4967 35.2567 34.1619 34.6268 34.4967 34.1694C34.8314 33.712 34.4967 31.8445 34.4967 31.8445C34.5093 31.9271 34.6046 31.777 34.7515 31.4622C34.975 30.9833 35.3166 30.1221 35.6617 29.1223C35.9084 28.4087 36.1571 27.6236 36.365 26.856H36.3655C36.42 26.6543 36.4716 26.4545 36.5204 26.2565C36.6158 25.8681 36.6975 25.4908 36.7595 25.1365C36.8943 24.3734 36.9387 23.7179 36.8352 23.2915C36.7495 22.9367 36.5618 22.7411 36.2378 22.7746C36.4114 22.7461 36.6657 22.7191 36.979 22.6935C37.0355 22.689 37.0941 22.6845 37.1546 22.6795C39.4917 22.5044 44.5058 22.4038 44.5058 22.4038L46.0417 25.1315L47.9867 28.5869C47.9867 28.5869 47.9337 33.2222 47.9938 36.9998Z" fill="#2F2E41"/>
<path d="M41.5475 10.6141L38.0091 9.86963L37.3065 11.2722L34.9406 12.6307C34.9406 12.6307 36.4656 18.8152 36.4569 19.685C36.4348 21.8934 32.8722 26.8438 35.5632 26.4629C38.2542 26.0821 38.8008 24.4869 39.6646 24.7391C40.4437 24.9666 41.3951 25.9786 42.0319 25.2548C42.6688 24.5311 42.8931 25.3668 43.2959 25.3957C43.4872 25.4094 43.372 24.4818 43.8535 25.4245C44.335 26.3673 46.8885 25.0982 46.0231 24.2399C44.5817 22.8104 44.2888 12.2723 44.2888 12.2723L42.6843 11.7827L41.5475 10.6141Z" fill="#E6E6E6"/>
<path d="M34.8737 33.0736C35.0159 32.9054 35.0863 32.6889 35.0699 32.4701C35.0536 32.2512 34.9518 32.0473 34.7862 31.9018C34.7521 31.8727 34.7156 31.8465 34.6771 31.8234L35.2687 28.9437L33.901 28.1318L33.5206 32.1636C33.4365 32.3293 33.41 32.518 33.4453 32.7002C33.4806 32.8824 33.5757 33.0479 33.7158 33.1708C33.7962 33.24 33.8896 33.2928 33.9906 33.3262C34.0916 33.3596 34.1982 33.373 34.3044 33.3655C34.4106 33.358 34.5142 33.3299 34.6094 33.2827C34.7047 33.2355 34.7896 33.1702 34.8593 33.0904C34.8642 33.0849 34.869 33.0793 34.8737 33.0736Z" fill="#A0616A"/>
<path d="M39.1203 17.8942C39.1117 17.8016 38.9927 17.7595 38.8277 17.7015C38.662 17.6509 38.5045 17.5769 38.36 17.4818C37.9947 17.2201 38.1385 16.9464 38.3373 16.5681C38.3761 16.4945 38.4165 16.418 38.4543 16.3384C38.5668 16.1027 38.3877 15.1304 37.921 13.448C37.7772 12.9301 37.7777 12.5643 37.6783 12.3216C37.5794 12.0789 37.3812 11.9593 36.8408 11.9343C36.1876 11.9016 35.5481 12.127 35.0623 12.5613C35.0491 12.5728 35.0355 12.5853 35.0224 12.5973C34.9977 12.6203 34.9735 12.6439 34.9497 12.6679C34.5005 13.1161 34.2434 13.7193 34.2323 14.3513L34.2298 14.4588L34.1183 19.5991L33.8049 24.1098L33.373 30.3234L33.6929 30.3389L34.9694 30.4019L35.1243 30.4094L35.4916 28.8812L35.9336 27.0422L36.0961 26.3666L36.6001 24.2709L36.8352 23.2916L36.979 22.6936L37.0376 22.4494L37.3231 21.2624C37.3297 21.2374 37.9866 18.6668 38.7439 18.2369C39.0265 18.0768 39.1284 17.9837 39.1203 17.8942Z" fill="#E6E6E6"/>
<path d="M47.6174 33.0426C47.4579 32.8906 47.3644 32.6828 47.357 32.4635C47.3495 32.2442 47.4286 32.0307 47.5775 31.8683C47.6083 31.8358 47.6417 31.8058 47.6775 31.7788L46.7775 28.9787L48.0493 28.0259L48.8641 31.9938C48.9658 32.1496 49.0125 32.3344 48.9971 32.5193C48.9818 32.7042 48.9051 32.8788 48.7791 33.016C48.7067 33.0933 48.6196 33.1558 48.5228 33.1997C48.426 33.2437 48.3214 33.2683 48.2151 33.2722C48.1087 33.2761 48.0026 33.2592 47.9028 33.2224C47.803 33.1856 47.7115 33.1297 47.6335 33.0579C47.6281 33.0529 47.6227 33.0478 47.6174 33.0426Z" fill="#A0616A"/>
<path d="M48.2396 26.9673C48.2396 26.9673 47.2476 23.5058 47.5501 23.131C47.8526 22.7563 46.9592 22.6831 47.3442 21.9852C47.7292 21.2873 47.1978 21.1706 47.1978 21.1706L46.9094 19.566L46.3939 15.6247L46.3783 15.5075L46.2283 14.3608C46.1864 14.0333 46.0784 13.7176 45.9106 13.4324C45.7429 13.1473 45.5189 12.8986 45.252 12.7012C45.2384 12.6909 45.2245 12.681 45.2106 12.671C45.1471 12.6257 45.0823 12.5837 45.016 12.5451C44.5212 12.2555 43.94 12.146 43.3726 12.2354C42.3034 12.4006 42.6361 12.7961 42.4627 13.8555C42.1809 15.5781 42.1078 16.5636 42.2452 16.7863C42.2915 16.8612 42.3401 16.933 42.3865 17.0018C42.6252 17.3573 42.7978 17.6137 42.4628 17.9134C42.3293 18.0229 42.1808 18.1131 42.0217 18.1811C41.8642 18.2567 41.7502 18.311 41.7517 18.4039C41.7535 18.494 41.8648 18.5753 42.1629 18.7043C42.524 18.8611 42.912 19.4538 43.2297 20.0592C43.4818 20.5473 43.7066 21.0487 43.9032 21.5612L46.6342 29.179L47.0796 30.4213L47.2332 30.3972L48.4951 30.1988L48.8115 30.1491L48.2396 26.9673Z" fill="#E6E6E6"/>
<path d="M40.0547 9.81711C41.649 9.81711 42.9415 8.53524 42.9415 6.95397C42.9415 5.37269 41.649 4.09082 40.0547 4.09082C38.4603 4.09082 37.1678 5.37269 37.1678 6.95397C37.1678 8.53524 38.4603 9.81711 40.0547 9.81711Z" fill="#A0616A"/>
<path d="M35.7247 5.37395C35.2853 3.78484 38.8298 2.42214 39.7606 3.70186C39.89 3.51992 40.3683 3.40941 40.5878 3.46522C40.8072 3.52103 40.9918 3.66056 41.1719 3.79562C41.4195 3.98426 41.6761 4.1796 41.828 4.45084C41.981 4.72096 42.0047 5.08932 41.7987 5.32372C41.6355 5.51013 41.1538 5.63068 40.9085 5.67979C40.7374 5.7144 40.5934 5.7423 40.4696 5.76239C40.3571 5.60171 40.3053 5.40688 40.3233 5.2121C40.24 5.26785 40.1701 5.34119 40.1187 5.42688C40.0674 5.51257 40.0357 5.60846 40.0262 5.7077C40.0228 5.749 41.4093 10.8088 41.4093 10.8088C41.2427 10.9028 41.0675 10.9809 40.886 11.0421C40.5269 10.4978 40.2519 9.90338 40.0701 9.27847C40.0283 9.69633 40.0335 10.1175 40.0858 10.5342C40.1136 10.7679 40.1534 11 40.2051 11.2296C38.5575 11.5823 36.0793 11.4663 35.0011 9.96606C35.0009 9.95985 35.0007 9.95364 35.0005 9.94743C34.9997 9.88821 34.9781 9.83113 34.9395 9.78595C34.9009 9.74078 34.8477 9.71033 34.7889 9.6998C34.7301 9.68928 34.6695 9.69935 34.6174 9.72829C34.5653 9.75722 34.525 9.80322 34.5033 9.85841C34.4772 9.92459 34.4531 9.98188 34.4316 10.0275C34.1176 8.91346 34.5239 7.62424 35.7247 5.37395Z" fill="#2F2E41"/>
<path d="M21.408 15.2671C21.347 15.2698 21.2867 15.254 21.2351 15.2216C21.1835 15.1892 21.1432 15.1419 21.1197 15.0861C21.0962 15.0302 21.0905 14.9685 21.1035 14.9094C21.1164 14.8503 21.1474 14.7965 21.1923 14.7554C21.1998 14.7258 21.2051 14.7046 21.2127 14.675C21.21 14.6685 21.2073 14.6621 21.2045 14.6557C20.9305 14.0076 20.0018 14.0121 19.7302 14.6611C19.489 15.2371 19.182 15.8142 19.1064 16.4232C19.0731 16.6924 19.0871 16.9653 19.1479 17.2298C18.5815 16.0044 18.2874 14.6726 18.2855 13.3246C18.2854 12.9863 18.3044 12.6483 18.3423 12.3122C18.3736 12.0366 18.4171 11.763 18.4727 11.4913C18.7763 10.0173 19.4281 8.63575 20.3745 7.4601C20.8326 7.2122 21.2031 6.831 21.436 6.36785C21.5204 6.20137 21.58 6.02364 21.613 5.84021C21.5614 5.84693 21.4182 5.06639 21.4572 5.0185C21.3852 4.91012 21.2563 4.85625 21.1776 4.75049C20.7865 4.22451 20.2476 4.31635 19.9662 5.03111C19.3652 5.33195 19.3594 5.83087 19.7282 6.31071C19.9628 6.616 19.995 7.02907 20.2009 7.3559C20.1797 7.38279 20.1577 7.40884 20.1365 7.43573C19.7494 7.92946 19.4119 8.45964 19.1291 9.01865C19.2091 8.39865 19.091 7.65171 18.8895 7.17023C18.6602 6.62163 18.2305 6.1596 17.852 5.68533C17.3974 5.11567 16.4652 5.36428 16.3851 6.08642C16.3844 6.09341 16.3836 6.1004 16.3829 6.10739C16.4391 6.13884 16.4941 6.17223 16.548 6.20754C16.6156 6.25236 16.668 6.3164 16.6983 6.39127C16.7286 6.46613 16.7354 6.54833 16.7178 6.6271C16.7002 6.70587 16.6591 6.77753 16.5997 6.83269C16.5403 6.88785 16.4656 6.92394 16.3852 6.93623L16.3769 6.93749C16.397 7.13843 16.4324 7.33757 16.4828 7.53319C15.9973 9.39543 17.0455 10.0737 18.5422 10.1042C18.5752 10.121 18.6074 10.1378 18.6405 10.1537C18.3563 10.9525 18.178 11.7846 18.1102 12.6289C18.0718 13.1271 18.074 13.6275 18.1169 14.1253L18.1144 14.1077C18.006 13.5541 17.7082 13.0547 17.2715 12.6936C16.6229 12.1651 15.7064 11.9705 15.0066 11.5457C14.6698 11.3413 14.2381 11.6055 14.2969 11.9928C14.2979 11.999 14.2988 12.0052 14.2998 12.0114C14.4041 12.0535 14.5057 12.1021 14.6039 12.1567C14.6601 12.1882 14.7151 12.2216 14.769 12.2569C14.8366 12.3017 14.889 12.3658 14.9193 12.4406C14.9497 12.5155 14.9565 12.5977 14.9389 12.6765C14.9213 12.7552 14.8801 12.8269 14.8207 12.882C14.7614 12.9372 14.6866 12.9733 14.6062 12.9856L14.598 12.9868C14.592 12.9877 14.587 12.9885 14.581 12.9894C14.7593 13.4115 15.0094 13.8 15.3206 14.1379C15.6242 15.7636 16.928 15.9178 18.3228 15.4444H18.3236C18.4767 16.1039 18.6984 16.7459 18.9853 17.36H21.3487C21.3572 17.334 21.3648 17.3071 21.3725 17.281C21.1537 17.2947 20.9341 17.2817 20.7185 17.2424C20.8938 17.029 21.0692 16.8139 21.2445 16.6005C21.2485 16.5965 21.2521 16.5923 21.2556 16.5879C21.3445 16.4787 21.4343 16.3703 21.5233 16.2611L21.5233 16.2609C21.528 15.9261 21.4893 15.5921 21.408 15.2671L21.408 15.2671Z" fill="#F2F2F2"/>
<path d="M10.3798 3.47852C10.3261 3.6025 8.67214 3.58921 8.59639 3.69961C8.01232 4.55195 10.1178 8.17842 9.53369 9.03186L9.45233 9.12803C9.64287 9.04094 9.82591 8.93852 9.9996 8.82181C10.0152 8.47248 10.0308 8.12204 10.0475 7.7727C10.2225 7.99467 10.3637 8.24086 10.4666 8.50343C10.6026 8.40836 10.7142 8.23212 11.297 7.88547C11.533 7.62838 11.805 7.40629 12.1047 7.22602L10.3798 3.47852Z" fill="#2F2E41"/>
<path d="M11.5809 10.4639C11.3984 10.346 11.1901 10.2729 10.9735 10.2508C10.7568 10.2287 10.5379 10.2581 10.335 10.3367C10.132 10.4153 9.95095 10.5407 9.8067 10.7026C9.66245 10.8645 9.55921 11.0582 9.50554 11.2676L6.99205 17.763L2.67164 15.3303C2.65267 15.0507 2.5449 14.7842 2.36379 14.5691C2.18268 14.354 1.93753 14.2013 1.6635 14.1329C1.38947 14.0645 1.10064 14.0839 0.838443 14.1884C0.576242 14.2929 0.354137 14.477 0.203984 14.7145C0.0538312 14.9519 -0.0166559 15.2303 0.00263247 15.5099C0.0219209 15.7895 0.129994 16.0559 0.311351 16.2708C0.492709 16.4857 0.738032 16.6382 1.01214 16.7063C1.28624 16.7743 1.57505 16.7546 1.83713 16.6498C2.74697 17.6129 6.69146 21.5616 8.32445 20.0188C9.69706 18.7219 11.6779 13.6958 12.1547 11.9602C12.2311 11.6827 12.2167 11.3882 12.1136 11.1193C12.0105 10.8504 11.824 10.6209 11.5809 10.4639Z" fill="#FFB6B6"/>
<path d="M6.86121 20.291L7.65439 23.8467L13.4544 24.367L13.9874 21.271L6.86121 20.291Z" fill="#FFB6B6"/>
<path d="M15.7209 29.409C15.7183 29.46 15.7151 29.5105 15.7114 29.5614C15.6557 30.2982 15.5921 31.1479 15.5233 32.0791C15.4147 33.5568 15.2933 35.2394 15.1709 36.9998H3.00537L5.36475 29.9663C5.36475 29.9663 6.31742 29.4461 5.83241 28.5722C5.34739 27.6983 6.30172 28.3947 6.3106 27.1466C6.31948 25.8986 7.17465 24.5708 7.17465 24.5708L7.31506 22.6812L7.39506 22.6827L13.7261 22.7873L13.8416 22.7894L14.036 24.4116C15.2167 25.805 15.819 27.5915 15.7209 29.409Z" fill="#2F2E41"/>
<path d="M10.4812 8.74076L13.3681 8.59326L14.709 10.6947C14.709 10.6947 17.232 11.113 17.0571 14.0617C16.8822 17.0103 13.9874 19.5977 13.9874 19.5977L14.1112 19.177L13.8962 19.786L13.9238 20.128L14.217 20.4901L14.2472 20.8647L13.9874 21.4573C14.0212 21.511 14.0391 21.573 14.0392 21.6363C14.0392 21.6996 14.0214 21.7616 13.9876 21.8154C13.9539 21.8691 13.9057 21.9124 13.8485 21.9404C13.7912 21.9683 13.7272 21.9798 13.6637 21.9735L9.49229 21.5588C9.39732 21.2997 9.32112 20.9897 8.94043 21.5058L8.54748 21.4681L6.91397 21.3111L6.81782 20.9637C6.76319 20.7663 6.75468 20.5592 6.79293 20.358C6.83118 20.1569 6.91519 19.9671 7.03856 19.803C6.89667 19.3623 6.93384 18.8841 7.14214 18.4703L7.14995 18.4547L7.32342 18.3113C7.32342 18.3113 5.42559 15.4835 7.60424 13.3536L8.47865 11.8793L9.45704 10.6954L10.4812 8.74076Z" fill="#D8D8D8"/>
<path d="M11.1998 7.50019C12.7117 7.50019 13.9374 6.28456 13.9374 4.78501C13.9374 3.28545 12.7117 2.06982 11.1998 2.06982C9.68783 2.06982 8.46216 3.28545 8.46216 4.78501C8.46216 6.28456 9.68783 7.50019 11.1998 7.50019Z" fill="#FFB6B6"/>
<path d="M13.2789 8.69655C13.056 8.5118 12.9008 8.25919 12.8375 7.97798C12.7869 8.31942 12.8001 8.66718 12.8765 9.00387C12.7283 9.11442 12.5845 9.21944 12.4485 9.31451C12.3456 9.05194 12.2044 8.80575 12.0294 8.58378C12.0127 8.93312 11.9971 9.28356 11.9815 9.63289C11.8078 9.74961 11.6248 9.85202 11.4342 9.93911L11.5156 9.84294C12.0996 8.9895 10.5882 7.4186 11.1723 6.56627C11.3361 6.32748 10.596 4.44041 10.032 4.35529C9.53044 4.28012 9.55161 4.42383 9.06564 4.52885C9.01517 4.3201 8.93682 4.11897 8.83268 3.93078C8.8604 4.14047 8.85401 4.35322 8.81374 4.56091C8.64097 4.56754 8.50504 4.45836 8.32107 4.43046C7.14737 4.25248 7.26664 2.99333 7.59322 2.59425C7.92092 2.19627 9.00879 2.07688 9.51037 1.94753C9.55607 1.90331 9.65973 1.93095 9.70543 1.88894C10.6667 1.01643 11.9523 0.871937 13.1092 1.25865C14.343 1.67106 15.1122 2.46924 15.507 3.69973L15.6203 4.68444C15.7219 5.00106 15.5941 6.47425 15.507 6.7951C15.1688 8.04232 14.4483 7.41971 13.2789 8.69655Z" fill="#2F2E41"/>
<path d="M17.2707 21.5603L17.1629 13.2352C17.1573 12.8825 17.0121 12.5462 16.7586 12.2987C16.5052 12.0513 16.1638 11.9126 15.8081 11.9126C15.6241 11.9126 15.4421 11.9498 15.273 12.0218C15.104 12.0939 14.9515 12.1993 14.8249 12.3317C14.6983 12.4642 14.6002 12.6207 14.5366 12.792C14.4731 12.9632 14.4453 13.1455 14.455 13.3277L14.8343 21.9721L14.8415 27.2343C14.618 27.3284 14.429 27.4883 14.3004 27.6926C14.1717 27.8968 14.1096 28.1353 14.1224 28.3758C14.1352 28.6163 14.2223 28.847 14.3719 29.0366C14.5215 29.2263 14.7264 29.3657 14.9586 29.4358C15.1909 29.506 15.4393 29.5035 15.6701 29.4288C15.9009 29.354 16.1029 29.2106 16.2487 29.0181C16.3945 28.8255 16.4769 28.5931 16.4849 28.3524C16.4929 28.1117 16.4259 27.8745 16.2932 27.6728L17.2707 21.5603Z" fill="#FFB6B6"/>
<path d="M31.3997 32.3311C31.3997 32.3311 31.2331 35.3044 31.1565 37.0001H25.418C25.2999 35.4569 25.2601 34.3231 25.2601 34.3231L24.9461 37.0001H19.1456L18.786 32.0423L20.5238 27.7699C20.5238 27.7699 29.9414 27.1221 30.815 27.9439C31.688 28.765 31.3997 32.3311 31.3997 32.3311Z" fill="#2F2E41"/>
<path d="M26.3253 7.31926C28.0565 7.31926 29.4599 5.92738 29.4599 4.21041C29.4599 2.49344 28.0565 1.10156 26.3253 1.10156C24.5942 1.10156 23.1908 2.49344 23.1908 4.21041C23.1908 5.92738 24.5942 7.31926 26.3253 7.31926Z" fill="#FFB6B6"/>
<path d="M29.9789 3.1999C29.657 3.3455 29.4484 4.40004 29.1953 4.15488C28.9423 3.90972 28.9591 3.59069 28.618 3.50021C28.3425 3.42684 28.046 3.5107 27.7947 3.64295C27.7498 3.66629 27.7063 3.69166 27.6639 3.7169C27.6359 3.69835 27.608 3.6809 27.5781 3.6648C27.3534 3.54549 27.091 3.51622 26.8451 3.58302C27.0394 3.64757 27.2083 3.77106 27.328 3.93604C27.2439 3.99194 27.1587 4.04799 27.0716 4.09765C26.3436 4.51432 25.3077 3.60829 24.5414 3.26791C25.0213 4.16124 24.785 4.53121 24.3683 5.45511L24.3539 5.50772C24.3775 5.27616 23.6551 5.1036 23.697 5.42956C23.7267 5.66099 23.9287 6.1754 24.0418 6.37973C23.2361 5.4558 22.6855 4.32516 22.8017 3.1588C22.827 2.91379 22.8194 2.65527 22.9468 2.44261C23.0744 2.23105 23.3403 2.08259 23.5755 2.16327C23.5556 1.79131 23.6377 1.42094 23.813 1.09154C23.9884 0.762141 24.2504 0.486025 24.5714 0.292546C24.8923 0.0990672 25.2601 -0.00454274 25.6356 -0.00726899C26.0112 -0.00999525 26.3805 0.0882647 26.7042 0.277064C27.005 0.452138 27.2562 0.699748 27.5319 0.913332C27.8076 1.12691 28.1255 1.31309 28.4751 1.33072C28.6969 1.34133 28.9383 1.28762 29.1288 1.40156C29.3495 1.53376 29.3873 1.81054 29.4205 2.07688C29.2236 2.09613 29.037 2.17316 28.8844 2.29813C29.0881 2.27752 29.2932 2.32114 29.4705 2.4228C29.4738 2.42431 29.477 2.42612 29.4801 2.42821C29.5968 2.86838 29.5848 2.96595 29.9789 3.1999Z" fill="#2F2E41"/>
<path d="M19.1595 29.2738C21.8289 26.1749 20.9272 22.2333 19.8678 18.2546L20.0694 12.3767C20.0793 12.0884 20.159 11.8067 20.3018 11.5553C20.4445 11.304 20.6462 11.0904 20.8897 10.9326L23.6148 9.16692L24.6754 7.646L27.599 7.93596L29.2203 9.63644L31.0148 10.9952C31.4654 11.3364 31.8082 11.7982 32.0029 12.3263C32.1976 12.8543 32.236 13.4265 32.1136 13.9755L30.3963 21.6782C30.3963 21.6782 31.1146 25.6714 30.6763 26.1124C30.238 26.5534 29.1087 26.1126 30.0043 26.6077C31.079 27.2018 32.0562 27.0921 31.5123 27.6315C30.9685 28.171 31.6568 28.9209 31.6568 28.9209L19.1595 29.2738Z" fill="#D8D8D8"/>
<path d="M20.3008 33.7776L20.7458 30.6331L18.9701 30.1304L18.6189 33.4715C18.472 33.6051 18.3655 33.7768 18.3115 33.9671C18.2575 34.1575 18.2582 34.359 18.3133 34.549C18.3685 34.739 18.476 34.91 18.6237 35.0428C18.7715 35.1755 18.9537 35.2647 19.1498 35.3004C19.3459 35.3361 19.5481 35.3168 19.7338 35.2448C19.9195 35.1727 20.0812 35.0507 20.2008 34.8925C20.3203 34.7343 20.3931 34.5461 20.4107 34.3491C20.4284 34.1522 20.3903 33.9542 20.3008 33.7776Z" fill="#FFB6B6"/>
<path d="M23.6814 9.73389C23.6814 9.73389 18.6271 11.3654 18.5066 12.5592C18.3861 13.7529 18.426 14.4837 17.8926 19.2606L17.9207 32.1284C17.9207 32.1284 21.3093 32.848 20.9618 32.0786C20.6142 31.3093 20.7355 30.9473 20.7355 30.9473C20.7355 30.9473 21.462 30.663 21.2801 29.7596C21.0983 28.8563 22.0103 24.3797 22.0103 24.3797L22.5859 16.3512L23.6814 9.73389Z" fill="#D8D8D8"/>
<path d="M29.9135 33.6112L29.6766 30.4447L31.4816 30.0581L31.6119 33.4148C31.7497 33.5577 31.8446 33.7359 31.886 33.9293C31.9273 34.1228 31.9134 34.3238 31.8458 34.5099C31.7783 34.6959 31.6597 34.8596 31.5035 34.9824C31.3473 35.1053 31.1597 35.1826 30.9616 35.2055C30.7636 35.2284 30.5631 35.196 30.3825 35.1121C30.202 35.0281 30.0487 34.8959 29.9398 34.7303C29.8309 34.5646 29.7707 34.3721 29.7661 34.1745C29.7614 33.9768 29.8125 33.7817 29.9135 33.6112Z" fill="#FFB6B6"/>
<path d="M28.1248 9.39941C28.1248 9.39941 33.0607 11.3551 33.1023 12.5541C33.1439 13.7532 33.0558 14.4798 33.2733 19.2811L32.3972 32.1195C32.3972 32.1195 28.9684 32.6178 29.3659 31.8727C29.7634 31.1275 29.6663 30.7584 29.6663 30.7584C29.6663 30.7584 28.96 30.4276 29.201 29.538C29.442 28.6484 28.827 24.1223 28.827 24.1223L28.7817 16.0736L28.1248 9.39941Z" fill="#D8D8D8"/>
</g>
<defs>
<clipPath id="clip0_345_9011">
<rect width="49" height="37" fill="white"/>
</clipPath>
</defs>
</svg>
