<svg width="117" height="42" viewBox="0 0 117 42" fill="none" xmlns="http://www.w3.org/2000/svg">
<path d="M31.7442 32.7748C27.6859 31.8506 23.7702 30.3389 20.5039 27.7138C17.2277 25.123 14.7657 21.2295 13.6097 16.7092C13.2063 21.3155 14.2172 26.3668 16.9572 30.7297C18.733 33.6081 21.0991 36.1054 23.7382 38.2464C19.8939 38.1137 16.057 36.8134 12.7956 34.2668C4.58055 27.8612 3.11956 16.0136 9.52923 7.80622C11.9372 4.72386 15.1125 2.59767 18.5731 1.47681C9.60302 2.47722 2.49237 9.63253 1.57249 18.6215C1.57249 18.6338 1.57249 18.6461 1.57003 18.6584C1.54051 18.9435 1.52083 19.2311 1.50362 19.5212C1.4987 19.5998 1.49624 19.6809 1.49132 19.7596C1.48148 19.9759 1.47902 20.1897 1.47656 20.4085C1.47656 20.556 1.47656 20.7059 1.47656 20.8534C1.47656 20.9911 1.48148 21.1262 1.4864 21.2614C1.49624 21.4876 1.50362 21.7113 1.52083 21.9374C1.52329 21.9792 1.52821 22.0234 1.53067 22.0652C1.94142 27.2738 4.45266 32.3004 8.89712 35.7687C11.9495 38.1505 15.4937 39.468 19.0822 39.7777C19.1585 39.7851 19.2323 39.79 19.3061 39.7949C19.5594 39.8146 19.8127 39.8269 20.0661 39.8367C20.1964 39.8416 20.3243 39.8466 20.4547 39.8466C20.6539 39.849 20.8531 39.8466 21.0524 39.8466C21.2172 39.8441 21.382 39.8416 21.5467 39.8343C21.7115 39.8269 21.8763 39.8171 22.0411 39.8048C22.2305 39.7925 22.4199 39.7802 22.6068 39.7605C22.7298 39.7482 22.8552 39.7335 22.9782 39.7187C23.2045 39.6917 23.4308 39.6671 23.6546 39.6327C23.6743 39.6303 23.6964 39.6253 23.7161 39.6229C24.1957 39.5491 24.6704 39.4508 25.1377 39.3427C25.214 39.323 25.2902 39.3083 25.3665 39.2886C27.0095 38.8437 28.6008 38.2021 30.111 37.3762C30.2389 37.305 30.3717 37.2411 30.4996 37.1698C30.9054 36.9363 31.3064 36.688 31.6974 36.425C32.9567 35.5524 34.1054 34.5348 35.1212 33.3918C33.9873 33.2246 32.8584 33.0231 31.7392 32.7797L31.7442 32.7748Z" fill="white"/>
<path d="M37.0002 23.3876C30.7381 25.3024 23.3077 25.2631 16.9473 21.3081C21.6524 27.0623 29.0828 30.2971 37.1035 30.7445C38.6604 28.2422 39.6541 25.3589 39.9198 22.2643C38.9802 22.6895 38.0062 23.068 37.0027 23.3851L37.0002 23.3876Z" fill="white"/>
<path d="M33.3798 18.9484C30.1873 20.905 26.2421 21.7997 22.2256 21.4359C26.0256 22.7116 30.4111 22.8419 34.5112 21.5023C36.4124 20.8976 38.2178 20.025 39.9223 18.9754C39.7821 17.2991 39.4279 15.6841 38.8868 14.1602C37.3077 16.0233 35.4901 17.6751 33.3798 18.9508V18.9484Z" fill="white"/>
<path d="M74.4869 37.6182C74.4869 38.2745 74.3394 38.7562 74.0442 39.0635C73.7491 39.3708 73.2744 39.5231 72.6201 39.5231H70.982V38.6407H72.4332C72.8341 38.6407 73.1145 38.5571 73.2744 38.39C73.4342 38.2204 73.5154 37.9402 73.5154 37.5469V34.3392H70.6869C70.6303 35.6837 70.2786 36.8316 69.6342 37.7829C69.0611 38.626 68.3159 39.238 67.3984 39.6215V38.6653C68.0822 38.2597 68.6258 37.7214 69.0242 37.0528C69.4866 36.2712 69.7277 35.3666 69.7449 34.3416H67.3984V33.469H69.7449V31.9475H70.6967V33.469H74.4869V37.6231V37.6182ZM73.6728 32.9922H73.0727V31.5665H73.6728V32.9922ZM74.7452 32.9922H74.1524V31.5665H74.7452V32.9922Z" fill="white"/>
<path d="M79.5733 34.4645C79.5733 35.9663 79.3544 37.1732 78.9165 38.0852C78.5845 38.7734 78.0754 39.3609 77.3916 39.8476V38.7316C77.8048 38.2744 78.1073 37.7681 78.2967 37.2126C78.5304 36.5194 78.6485 35.6222 78.6485 34.521V32.2228H79.5733V34.4645ZM85.1196 34.4842C84.8712 37.5493 83.4373 39.2527 80.8129 39.5969V32.2228H81.718V38.4145C83.1667 37.9573 83.9956 36.6472 84.2046 34.4842H85.1196Z" fill="white"/>
<path d="M93.4851 36.8587C92.4497 38.454 90.7993 39.3807 88.5291 39.6363V38.7465C90.0639 38.5449 91.2666 37.982 92.1348 37.0529C93.0031 36.1238 93.5122 34.8554 93.6598 33.2504H89.8597C89.6064 33.8894 89.2522 34.4572 88.7972 34.9587C88.3299 35.4822 87.8084 35.8755 87.2354 36.1385V35.1455C88.1823 34.4941 88.8218 33.5699 89.1464 32.3679H94.6928C94.6928 33.1569 94.5944 33.9337 94.3977 34.703C94.1837 35.5339 93.8762 36.2541 93.4827 36.8612L93.4851 36.8587Z" fill="white"/>
<path d="M57.7496 25.3281V21.936H54.6087V18.9225H61.1438V27.764C59.2081 28.2925 57.3241 28.5924 55.3638 28.6194C52.7763 28.6194 50.4373 27.8648 48.7303 25.9082C47.2226 24.1753 46.5684 21.8647 46.5684 19.5542C46.5684 17.5706 47.0726 15.5599 48.2778 13.854C49.8617 11.5435 52.3484 10.5136 55.2138 10.489C56.9994 10.489 58.6055 10.8159 60.2658 11.3936V14.5079H59.8403C58.5588 13.8565 56.7732 13.5542 55.3663 13.5542C53.7085 13.5542 52.1246 14.181 51.1456 15.5624C50.3905 16.6414 50.0659 18.276 50.0659 19.5812C50.0659 23.2978 52.0262 25.5837 55.8459 25.5837C56.5001 25.5837 57.1765 25.5075 57.7545 25.333L57.7496 25.3281Z" fill="white"/>
<path d="M84.7168 10.7594H88.111V24.4727C88.111 24.9004 88.4627 25.2765 88.8907 25.2765H96.936V28.3392H88.1848C86.2737 28.3392 84.7168 26.7833 84.7168 24.898V10.757V10.7594Z" fill="white"/>
<path d="M103.687 17.6936L110.296 10.7595H114.669L107.431 17.9935L115.523 28.3393H111.226L105.119 20.277L103.687 21.7592V28.3393H100.293V10.7595H103.687V17.6936Z" fill="white"/>
<path d="M81.4846 28.3392L75.3283 12.1162C74.9766 11.1871 74.0715 10.5603 73.0163 10.5603C71.9611 10.5603 71.0314 11.1625 70.6797 12.1162L64.5996 28.3392H67.9668L69.3835 24.4481C70.4657 23.8582 71.7103 23.5141 73.0507 23.5141C74.2707 23.5141 75.4168 23.7968 76.4277 24.2957L77.8936 28.3392H81.4871H81.4846ZM73.0433 21.0856C72.1013 21.0856 71.2159 21.2773 70.419 21.5944L72.9376 14.6775L75.4045 21.4862C74.679 21.2306 73.8845 21.0831 73.0409 21.0831L73.0433 21.0856Z" fill="white"/>
</svg>
