<svg width="117" height="42" viewBox="0 0 117 42" fill="none" xmlns="http://www.w3.org/2000/svg">
<path d="M31.7445 32.7748C27.6862 31.8506 23.7705 30.3389 20.5042 27.7138C17.228 25.123 14.766 21.2295 13.61 16.7092C13.2066 21.3155 14.2175 26.3668 16.9575 30.7297C18.7333 33.6081 21.0994 36.1054 23.7385 38.2464C19.8942 38.1137 16.0573 36.8134 12.7959 34.2668C4.58086 27.8612 3.11987 16.0136 9.52954 7.80622C11.9375 4.72386 15.1128 2.59767 18.5734 1.47681C9.60332 2.47722 2.49267 9.63253 1.57279 18.6215C1.57279 18.6338 1.57279 18.6461 1.57033 18.6584C1.54082 18.9435 1.52114 19.2311 1.50392 19.5212C1.499 19.5998 1.49654 19.6809 1.49163 19.7596C1.48179 19.9759 1.47933 20.1897 1.47687 20.4085C1.47687 20.556 1.47687 20.7059 1.47687 20.8534C1.47687 20.9911 1.48179 21.1262 1.48671 21.2614C1.49654 21.4876 1.50392 21.7113 1.52114 21.9374C1.5236 21.9792 1.52852 22.0234 1.53098 22.0652C1.94173 27.2738 4.45296 32.3004 8.89742 35.7687C11.9498 38.1505 15.494 39.468 19.0826 39.7777C19.1588 39.7851 19.2326 39.79 19.3064 39.7949C19.5597 39.8146 19.813 39.8269 20.0664 39.8367C20.1967 39.8416 20.3246 39.8466 20.455 39.8466C20.6542 39.849 20.8534 39.8466 21.0527 39.8466C21.2175 39.8441 21.3823 39.8416 21.547 39.8343C21.7118 39.8269 21.8766 39.8171 22.0414 39.8048C22.2308 39.7925 22.4202 39.7802 22.6071 39.7605C22.7301 39.7482 22.8555 39.7335 22.9785 39.7187C23.2048 39.6917 23.4311 39.6671 23.6549 39.6327C23.6746 39.6303 23.6967 39.6253 23.7164 39.6229C24.196 39.5491 24.6707 39.4508 25.138 39.3427C25.2143 39.323 25.2905 39.3083 25.3668 39.2886C27.0098 38.8437 28.6011 38.2021 30.1113 37.3762C30.2392 37.305 30.372 37.2411 30.4999 37.1698C30.9058 36.9363 31.3067 36.688 31.6977 36.425C32.957 35.5524 34.1057 34.5348 35.1215 33.3918C33.9876 33.2246 32.8587 33.0231 31.7396 32.7797L31.7445 32.7748Z" fill="white"/>
<path d="M37.0007 23.3876C30.7386 25.3024 23.3082 25.2631 16.9477 21.3081C21.6529 27.0623 29.0833 30.2971 37.104 30.7445C38.6609 28.2422 39.6545 25.3589 39.9202 22.2643C38.9806 22.6895 38.0066 23.068 37.0031 23.3851L37.0007 23.3876Z" fill="white"/>
<path d="M33.3805 18.9484C30.188 20.905 26.2428 21.7997 22.2263 21.4359C26.0264 22.7116 30.4118 22.8419 34.5119 21.5023C36.4132 20.8976 38.2185 20.025 39.923 18.9754C39.7828 17.2991 39.4286 15.6841 38.8875 14.1602C37.3085 16.0233 35.4908 17.6751 33.3805 18.9508V18.9484Z" fill="white"/>
<path d="M74.4878 37.6182C74.4878 38.2745 74.3403 38.7562 74.0451 39.0635C73.75 39.3708 73.2753 39.5231 72.621 39.5231H70.9829V38.6407H72.4341C72.835 38.6407 73.1154 38.5571 73.2753 38.39C73.4351 38.2204 73.5163 37.9402 73.5163 37.5469V34.3392H70.6878C70.6312 35.6837 70.2795 36.8316 69.6351 37.7829C69.062 38.626 68.3167 39.238 67.3993 39.6215V38.6653C68.0831 38.2597 68.6266 37.7214 69.0251 37.0528C69.4875 36.2712 69.7285 35.3666 69.7458 34.3416H67.3993V33.469H69.7458V31.9475H70.6976V33.469H74.4878V37.6231V37.6182ZM73.6737 32.9922H73.0736V31.5665H73.6737V32.9922ZM74.7461 32.9922H74.1533V31.5665H74.7461V32.9922Z" fill="white"/>
<path d="M79.5742 34.4645C79.5742 35.9663 79.3553 37.1732 78.9175 38.0852C78.5854 38.7734 78.0763 39.3609 77.3925 39.8476V38.7316C77.8058 38.2744 78.1083 37.7681 78.2977 37.2126C78.5313 36.5194 78.6494 35.6222 78.6494 34.521V32.2228H79.5742V34.4645ZM85.1206 34.4842C84.8721 37.5493 83.4382 39.2527 80.8138 39.5969V32.2228H81.719V38.4145C83.1677 37.9573 83.9965 36.6472 84.2056 34.4842H85.1206Z" fill="white"/>
<path d="M93.4856 36.8587C92.4501 38.454 90.7997 39.3807 88.5296 39.6363V38.7465C90.0643 38.5449 91.2671 37.982 92.1353 37.0529C93.0035 36.1238 93.5127 34.8554 93.6602 33.2504H89.8602C89.6068 33.8894 89.2527 34.4572 88.7976 34.9587C88.3303 35.4822 87.8089 35.8755 87.2358 36.1385V35.1455C88.1827 34.4941 88.8222 33.5699 89.1469 32.3679H94.6933C94.6933 33.1569 94.5949 33.9337 94.3981 34.703C94.1841 35.5339 93.8767 36.2541 93.4831 36.8612L93.4856 36.8587Z" fill="white"/>
<path d="M57.75 25.3281V21.936H54.6092V18.9225H61.1443V27.764C59.2086 28.2925 57.3245 28.5924 55.3643 28.6194C52.7768 28.6194 50.4377 27.8648 48.7308 25.9082C47.223 24.1753 46.5688 21.8647 46.5688 19.5542C46.5688 17.5706 47.073 15.5599 48.2782 13.854C49.8622 11.5435 52.3488 10.5136 55.2142 10.489C56.9999 10.489 58.606 10.8159 60.2662 11.3936V14.5079H59.8407C58.5592 13.8565 56.7736 13.5542 55.3667 13.5542C53.709 13.5542 52.125 14.181 51.1461 15.5624C50.391 16.6414 50.0663 18.276 50.0663 19.5812C50.0663 23.2978 52.0266 25.5837 55.8463 25.5837C56.5006 25.5837 57.177 25.5075 57.755 25.333L57.75 25.3281Z" fill="white"/>
<path d="M84.7173 10.7594H88.1116V24.4727C88.1116 24.9004 88.4633 25.2765 88.8912 25.2765H96.9365V28.3392H88.1853C86.2743 28.3392 84.7173 26.7833 84.7173 24.898V10.757V10.7594Z" fill="white"/>
<path d="M103.688 17.6936L110.297 10.7595H114.67L107.431 17.9935L115.523 28.3393H111.226L105.119 20.277L103.688 21.7592V28.3393H100.293V10.7595H103.688V17.6936Z" fill="white"/>
<path d="M81.4846 28.3392L75.3283 12.1162C74.9766 11.1871 74.0715 10.5603 73.0163 10.5603C71.9611 10.5603 71.0314 11.1625 70.6797 12.1162L64.5996 28.3392H67.9668L69.3835 24.4481C70.4657 23.8582 71.7103 23.5141 73.0507 23.5141C74.2707 23.5141 75.4168 23.7968 76.4277 24.2957L77.8936 28.3392H81.4871H81.4846ZM73.0433 21.0856C72.1013 21.0856 71.2159 21.2773 70.419 21.5944L72.9376 14.6775L75.4045 21.4862C74.679 21.2306 73.8845 21.0831 73.0409 21.0831L73.0433 21.0856Z" fill="white"/>
</svg>
