<svg width="41" height="41" viewBox="0 0 41 41" fill="none" xmlns="http://www.w3.org/2000/svg">
<path fill-rule="evenodd" clip-rule="evenodd" d="M20.5 40.6622C31.5457 40.6622 40.5 31.7079 40.5 20.6623C40.5 9.61662 31.5457 0.662354 20.5 0.662354C9.4543 0.662354 0.5 9.61662 0.5 20.6623C0.5 31.7079 9.4543 40.6622 20.5 40.6622ZM25.3638 9.4733C24.1664 9.41702 23.7855 9.40576 20.7334 9.40576C17.6813 9.40576 17.3005 9.4204 16.103 9.4733C14.9055 9.52959 14.0922 9.71758 13.3755 9.99674C12.6256 10.279 11.9463 10.7219 11.385 11.2947C10.813 11.8567 10.3709 12.5376 10.0898 13.2894C9.81117 14.0075 9.62357 14.8225 9.5674 16.0225C9.51123 17.2225 9.5 17.6041 9.5 20.6625C9.5 23.721 9.5146 24.1026 9.5674 25.3026C9.62357 26.5014 9.81117 27.3187 10.0898 28.0357C10.3716 28.7871 10.8136 29.4678 11.385 30.0304C11.9461 30.6033 12.6255 31.0463 13.3755 31.3283C14.0922 31.6064 14.9066 31.7955 16.103 31.8518C17.3005 31.9081 17.6813 31.9193 20.7334 31.9193C23.7855 31.9193 24.1664 31.9047 25.3638 31.8518C26.5602 31.7955 27.3758 31.6064 28.0913 31.3283C28.8409 31.0455 29.5202 30.6026 30.0819 30.0304C30.6538 29.4683 31.0959 28.7874 31.3771 28.0357C31.6546 27.3175 31.8433 26.5014 31.8995 25.3026C31.9556 24.1026 31.9669 23.721 31.9669 20.6625C31.9669 17.6041 31.9523 17.2225 31.8995 16.0225C31.8433 14.8236 31.6546 14.0064 31.3771 13.2894C31.0951 12.5381 30.6531 11.8574 30.0819 11.2947C29.4573 10.6699 28.8327 10.2827 28.0913 9.99674C27.3746 9.71758 26.5602 9.52959 25.3638 9.4733ZM16.7618 16.6827C17.8151 15.6271 19.2438 15.0342 20.7334 15.0342C22.2231 15.0342 23.6517 15.6271 24.705 16.6827C25.7584 17.7382 26.3501 19.1698 26.3501 20.6625C26.3501 22.1553 25.7584 23.5869 24.705 24.6424C23.6517 25.6979 22.2231 26.2909 20.7334 26.2909C19.2438 26.2909 17.8151 25.6979 16.7618 24.6424C15.7085 23.5869 15.1167 22.1553 15.1167 20.6625C15.1167 19.1698 15.7085 17.7382 16.7618 16.6827ZM27.6239 13.7578C27.8872 14.0216 28.0352 14.3795 28.0352 14.7527C28.0352 15.1259 27.8872 15.4838 27.6239 15.7477C27.3605 16.0116 27.0034 16.1598 26.631 16.1598C26.2586 16.1598 25.9014 16.0116 25.6381 15.7477C25.3747 15.4838 25.2268 15.1259 25.2268 14.7527C25.2268 14.3795 25.3747 14.0216 25.6381 13.7578C25.9014 13.4939 26.2586 13.3456 26.631 13.3456C27.0034 13.3456 27.3605 13.4939 27.6239 13.7578ZM23.1164 18.2746C22.4844 17.6413 21.6272 17.2855 20.7334 17.2855C19.8396 17.2855 18.9825 17.6413 18.3505 18.2746C17.7185 18.9079 17.3634 19.7669 17.3634 20.6625C17.3634 21.5582 17.7185 22.4171 18.3505 23.0505C18.9825 23.6838 19.8396 24.0396 20.7334 24.0396C21.6272 24.0396 22.4844 23.6838 23.1164 23.0505C23.7484 22.4171 24.1035 21.5582 24.1035 20.6625C24.1035 19.7669 23.7484 18.9079 23.1164 18.2746Z" fill="white"/>
</svg>
