<svg width="41" height="40" viewBox="0 0 41 40" fill="none" xmlns="http://www.w3.org/2000/svg">
<path fill-rule="evenodd" clip-rule="evenodd" d="M20.5 39.1814C31.5457 39.1814 40.5 30.4103 40.5 19.5907C40.5 8.77106 31.5457 0 20.5 0C9.4543 0 0.5 8.77106 0.5 19.5907C0.5 30.4103 9.4543 39.1814 20.5 39.1814ZM25.3638 8.63076C24.1664 8.57563 23.7855 8.56461 20.7334 8.56461C17.6813 8.56461 17.3005 8.57894 16.103 8.63076C14.9055 8.6859 14.0922 8.87004 13.3755 9.1435C12.6256 9.41996 11.9463 9.85386 11.385 10.4148C10.813 10.9654 10.3709 11.6324 10.0898 12.3687C9.81117 13.0722 9.62357 13.8705 9.5674 15.046C9.51123 16.2214 9.5 16.5952 9.5 19.5911C9.5 22.587 9.5146 22.9608 9.5674 24.1362C9.62357 25.3105 9.81117 26.111 10.0898 26.8134C10.3716 27.5494 10.8136 28.2162 11.385 28.7673C11.9461 29.3285 12.6255 29.7624 13.3755 30.0386C14.0922 30.311 14.9066 30.4962 16.103 30.5514C17.3005 30.6065 17.6813 30.6175 20.7334 30.6175C23.7855 30.6175 24.1664 30.6032 25.3638 30.5514C26.5602 30.4962 27.3758 30.311 28.0913 30.0386C28.8409 29.7616 29.5202 29.3278 30.0819 28.7673C30.6538 28.2166 31.0959 27.5497 31.3771 26.8134C31.6546 26.1099 31.8433 25.3105 31.8995 24.1362C31.9556 22.9608 31.9669 22.587 31.9669 19.5911C31.9669 16.5952 31.9523 16.2214 31.8995 15.046C31.8433 13.8716 31.6546 13.0711 31.3771 12.3687C31.0951 11.6328 30.6531 10.9661 30.0819 10.4148C29.4573 9.80288 28.8327 9.42357 28.0913 9.1435C27.3746 8.87004 26.5602 8.6859 25.3638 8.63076ZM16.7618 15.6926C17.8151 14.6587 19.2438 14.0778 20.7334 14.0778C22.2231 14.0778 23.6517 14.6587 24.705 15.6926C25.7584 16.7266 26.3501 18.1289 26.3501 19.5911C26.3501 21.0533 25.7584 22.4556 24.705 23.4895C23.6517 24.5234 22.2231 25.1043 20.7334 25.1043C19.2438 25.1043 17.8151 24.5234 16.7618 23.4895C15.7085 22.4556 15.1167 21.0533 15.1167 19.5911C15.1167 18.1289 15.7085 16.7266 16.7618 15.6926ZM27.6239 12.8276C27.8872 13.086 28.0352 13.4366 28.0352 13.8022C28.0352 14.1677 27.8872 14.5183 27.6239 14.7768C27.3605 15.0353 27.0034 15.1805 26.631 15.1805C26.2586 15.1805 25.9014 15.0353 25.6381 14.7768C25.3747 14.5183 25.2268 14.1677 25.2268 13.8022C25.2268 13.4366 25.3747 13.086 25.6381 12.8276C25.9014 12.5691 26.2586 12.4239 26.631 12.4239C27.0034 12.4239 27.3605 12.5691 27.6239 12.8276ZM23.1164 17.252C22.4844 16.6316 21.6272 16.2831 20.7334 16.2831C19.8396 16.2831 18.9825 16.6316 18.3505 17.252C17.7185 17.8724 17.3634 18.7137 17.3634 19.5911C17.3634 20.4684 17.7185 21.3098 18.3505 21.9301C18.9825 22.5505 19.8396 22.899 20.7334 22.899C21.6272 22.899 22.4844 22.5505 23.1164 21.9301C23.7484 21.3098 24.1035 20.4684 24.1035 19.5911C24.1035 18.7137 23.7484 17.8724 23.1164 17.252Z" fill="#2F2F2F"/>
</svg>
