<svg width="62" height="18" viewBox="0 0 62 18" fill="none" xmlns="http://www.w3.org/2000/svg">
<g clip-path="url(#clip0_470_8546)">
<path d="M3.92604 0.106518C2.69785 0.620336 1.34787 2.07009 0.921468 3.89123C0.381381 6.19789 2.62849 7.17363 2.81295 6.85414C3.02985 6.47829 2.41029 6.35124 2.28274 5.15429C2.11791 3.60837 2.83752 1.88105 3.74323 1.12312C3.91134 0.982216 3.90347 1.1783 3.90347 1.54077C3.90347 2.18903 3.86761 8.0087 3.86761 9.22327C3.86761 10.8666 3.79966 11.3856 3.67751 11.8985C3.55395 12.4181 3.35503 12.7693 3.50563 12.9045C3.67398 13.0558 4.39277 12.6959 4.80882 12.116C5.30776 11.4204 5.48246 10.5848 5.51385 9.67779C5.55171 8.58417 5.55006 6.84874 5.55171 5.85891C5.55312 4.95116 5.56699 2.29295 5.53572 0.694896C5.52808 0.302722 4.43967 -0.108473 3.92604 0.106518ZM47.5354 7.7977C47.4958 8.65215 47.3064 9.3199 47.0714 9.79098C46.6164 10.703 45.6724 10.9861 45.2715 9.67521C45.0531 8.9606 45.0428 7.76718 45.1998 6.76995C45.3597 5.75417 45.8062 4.98697 46.5453 5.05613C47.2744 5.12458 47.6157 6.06275 47.5354 7.7977ZM35.2441 13.0986C35.2343 14.5182 35.0105 15.7628 34.5309 16.1245C33.8504 16.6371 32.9359 16.2525 33.1253 15.2166C33.2928 14.2999 34.0853 13.3638 35.2461 12.2199C35.2461 12.2199 35.2485 12.4808 35.2441 13.0986ZM35.0584 7.78937C35.0168 8.56761 34.8148 9.34926 34.5944 9.79098C34.1394 10.703 33.1885 10.988 32.7945 9.67521C32.525 8.77814 32.5896 7.61735 32.7228 6.88584C32.8958 5.93676 33.3153 5.05624 34.0683 5.05624C34.8005 5.05624 35.1616 5.85856 35.0584 7.78937ZM27.9382 7.77763C27.8935 8.60166 27.7325 9.29055 27.4743 9.79098C27.0068 10.6967 26.0821 10.9839 25.6744 9.67521C25.3803 8.73152 25.4804 7.44486 25.6026 6.74975C25.7842 5.71824 26.2387 4.98697 26.9482 5.05624C27.6769 5.1274 28.0312 6.06286 27.9382 7.77763ZM60.5683 8.74021C60.3902 8.74021 60.3088 8.92362 60.2414 9.23219C60.0083 10.3059 59.763 10.5481 59.4468 10.5481C59.0936 10.5481 58.7761 10.0167 58.6944 8.95262C58.6304 8.1159 58.6407 6.57562 58.7226 5.04345C58.7395 4.72865 58.6525 4.41714 57.8071 4.11045C57.4433 3.97847 56.9145 3.78415 56.6512 4.4189C55.9073 6.21234 55.6163 7.63614 55.5477 8.2143C55.5442 8.24424 55.5074 8.25046 55.501 8.18048C55.4573 7.71727 55.3599 6.87539 55.3476 5.10685C55.3453 4.76176 55.2722 4.4681 54.8908 4.22763C54.6433 4.07147 53.892 3.79553 53.6214 4.12395C53.387 4.39237 53.1154 5.11495 52.8334 5.97163C52.6042 6.66791 52.4445 7.13876 52.4445 7.13876C52.4445 7.13876 52.4476 5.26032 52.4503 4.54771C52.4515 4.27894 52.2669 4.18935 52.2112 4.17315C51.9607 4.10058 51.467 3.97929 51.2575 3.97929C50.9988 3.97929 50.9356 4.12348 50.9356 4.33389C50.9356 4.36149 50.8948 6.80705 50.8948 8.51712C50.8948 8.59144 50.8948 8.67246 50.8951 8.75865C50.7522 9.54464 50.2884 10.6115 49.784 10.6115C49.279 10.6115 49.0408 10.1655 49.0408 8.12682C49.0408 6.9375 49.0766 6.42028 49.0941 5.56008C49.1043 5.06458 49.1241 4.68415 49.1229 4.59785C49.1191 4.33307 48.6608 4.19957 48.4475 4.15025C48.2332 4.10058 48.0469 4.08121 47.9015 4.08955C47.6956 4.10129 47.55 4.23597 47.55 4.42149C47.55 4.52106 47.5512 4.7101 47.5512 4.7101C47.2861 4.29397 46.8597 4.00442 46.576 3.92047C45.8118 3.69385 45.0145 3.89464 44.413 4.73523C43.935 5.40298 43.6469 6.1595 43.5334 7.24619C43.4505 8.04076 43.4776 8.84636 43.625 9.52773C43.4469 10.2966 43.1164 10.6115 42.7545 10.6115C42.2289 10.6115 41.848 9.75505 41.8922 8.27348C41.9214 7.29903 42.1167 6.61519 42.3301 5.62584C42.421 5.20407 42.3471 4.98333 42.1617 4.77174C41.9916 4.57765 41.6291 4.47843 41.1083 4.60031C40.7373 4.68732 40.2067 4.7809 39.7213 4.85276C39.7213 4.85276 39.7507 4.73593 39.7747 4.53022C39.901 3.45115 38.7268 3.53863 38.3522 3.88325C38.1287 4.08908 37.9764 4.33178 37.9187 4.7681C37.827 5.46063 38.3925 5.78728 38.3925 5.78728C38.2071 6.63551 37.7522 7.74346 37.2827 8.5446C37.0312 8.97376 36.8389 9.29184 36.5905 9.62988C36.5824 8.27326 36.5912 6.9166 36.6171 5.5602C36.6273 5.0647 36.6471 4.69436 36.6461 4.60794C36.6433 4.41444 36.5301 4.34117 36.2946 4.24865C36.0863 4.16669 35.8401 4.1101 35.5846 4.09013C35.2622 4.06524 35.068 4.23585 35.0732 4.43781C35.0742 4.47597 35.0741 4.7101 35.0741 4.7101C34.809 4.29397 34.3826 4.00442 34.099 3.92047C33.3348 3.69385 32.5375 3.89464 31.936 4.73523C31.4581 5.40298 31.1452 6.3402 31.0564 7.23798C30.9739 8.07457 30.989 8.78553 31.1017 9.3846C30.9802 9.98437 30.6308 10.6116 30.2359 10.6116C29.7309 10.6116 29.4436 10.1655 29.4436 8.12682C29.4436 6.9375 29.4793 6.42028 29.4969 5.56008C29.5072 5.0647 29.5268 4.68415 29.5257 4.59785C29.522 4.33307 29.0636 4.19969 28.8502 4.15025C28.6271 4.09859 28.4344 4.0798 28.2864 4.09072C28.0912 4.10516 27.9539 4.27976 27.9539 4.40998V4.7101C27.6888 4.29397 27.2624 4.00442 26.9787 3.92047C26.2146 3.69385 25.4217 3.89792 24.8158 4.73523C24.4208 5.2811 24.1009 5.88627 23.9363 7.226C23.8887 7.61312 23.8676 7.97583 23.8705 8.31458C23.7129 9.27693 23.0169 10.3861 22.4478 10.3861C22.1148 10.3861 21.7975 9.74073 21.7975 8.36565C21.7975 6.53394 21.911 3.92587 21.9303 3.67459C21.9303 3.67459 22.6494 3.66238 22.7886 3.66074C23.1474 3.65675 23.4723 3.66532 23.9502 3.64078C24.1898 3.62868 24.4207 2.76954 24.1733 2.66328C24.0611 2.61514 23.2689 2.5731 22.9548 2.56641C22.6907 2.56054 21.9555 2.50606 21.9555 2.50606C21.9555 2.50606 22.0214 0.774975 22.0368 0.592156C22.0498 0.439631 21.8522 0.361196 21.7391 0.313642C21.4638 0.197399 21.2175 0.141626 20.9256 0.081508C20.5221 -0.00162349 20.3392 0.0797467 20.3035 0.41967C20.2496 0.935719 20.2218 2.44723 20.2218 2.44723C19.9257 2.44723 18.9144 2.38946 18.6184 2.38946C18.3433 2.38946 18.0464 3.57115 18.4268 3.58571C18.8644 3.60262 19.627 3.61741 20.1325 3.63244C20.1325 3.63244 20.11 6.28349 20.11 7.10212C20.11 7.18901 20.1104 7.27297 20.1109 7.35434C19.8326 8.80268 18.8526 9.58515 18.8526 9.58515C19.0631 8.6269 18.6331 7.90725 17.8587 7.29809C17.5734 7.07371 17.0102 6.64878 16.38 6.1831C16.38 6.1831 16.7449 5.8238 17.0687 5.10098C17.298 4.58881 17.3079 4.00301 16.7449 3.87373C15.8148 3.66004 15.0479 4.34235 14.8191 5.0708C14.6418 5.63511 14.7364 6.0537 15.0836 6.48862C15.1089 6.52044 15.1365 6.55296 15.1648 6.58561C14.9549 6.98976 14.6664 7.53398 14.4221 7.95598C13.744 9.12781 13.2318 10.0545 12.8446 10.0545C12.5352 10.0545 12.5393 9.11348 12.5393 8.2325C12.5393 7.47304 12.5955 6.33116 12.6404 5.14912C12.6553 4.75812 12.4594 4.53538 12.1314 4.33366C11.932 4.21107 11.5065 3.97013 11.2601 3.97013C10.8912 3.97013 9.82702 4.02027 8.82162 6.92518C8.69489 7.29128 8.44589 7.95845 8.44589 7.95845L8.4674 4.46517C8.4674 4.38321 8.42367 4.30407 8.32362 4.24994C8.15421 4.158 7.70171 3.97013 7.29929 3.97013C7.10766 3.97013 7.01185 4.05914 7.01185 4.23667L6.97681 9.70198C6.97681 10.1173 6.98763 10.6017 7.02878 10.8136C7.06969 11.0256 7.13611 11.1982 7.21817 11.3008C7.30035 11.4034 7.39522 11.4817 7.5517 11.5138C7.69736 11.5438 8.49491 11.6461 8.53641 11.3417C8.58602 10.9768 8.58802 10.5823 9.00678 9.11055C9.65879 6.81926 10.5088 5.70145 10.9085 5.30435C10.9784 5.23507 11.0581 5.23084 11.0543 5.34439C11.0373 5.8467 10.9773 7.10212 10.9369 8.16827C10.8287 11.0221 11.3484 11.5511 12.0913 11.5511C12.6596 11.5511 13.4607 10.9871 14.3194 9.55955C14.7978 8.764 15.2741 7.96712 15.7481 7.16893C16.0083 7.40952 16.3004 7.66843 16.5922 7.94506C17.2706 8.58804 17.4932 9.19908 17.3454 9.77865C17.2326 10.2217 16.8069 10.6783 16.0494 10.2346C15.8286 10.1051 15.7344 10.0049 15.5124 9.85896C15.3932 9.78065 15.2111 9.75716 15.1019 9.83936C14.8183 10.0528 14.6561 10.3245 14.5634 10.6608C14.4734 10.988 14.8015 11.161 15.1417 11.3124C15.4346 11.4426 16.0641 11.5606 16.4655 11.574C18.0297 11.6262 19.2828 10.8197 20.1551 8.73916C20.3112 10.536 20.9757 11.5527 22.1303 11.5527C22.9022 11.5527 23.6761 10.5562 24.0146 9.57587C24.1117 9.97544 24.2556 10.323 24.4413 10.6169C25.331 12.0247 27.0568 11.7218 27.9237 10.5262C28.1917 10.1569 28.2325 10.0242 28.2325 10.0242C28.359 11.1529 29.2692 11.5473 29.7903 11.5473C30.374 11.5473 30.9765 11.2717 31.3989 10.3221C31.4484 10.4252 31.5024 10.5237 31.5615 10.6169C32.4511 12.0247 34.177 11.7218 35.0439 10.5262C35.0848 10.4701 35.1203 10.4194 35.1513 10.3736L35.1767 11.1151L34.3785 11.8463C33.0407 13.0709 32.0244 13.9997 31.9497 15.0815C31.8544 16.4608 32.9739 16.9734 33.822 17.0406C34.721 17.1118 35.4923 16.6154 35.9656 15.9206C36.3823 15.309 36.655 13.9928 36.6349 12.6928C36.627 12.1722 36.6138 11.5103 36.6035 10.8008C37.0732 10.2561 37.6023 9.56753 38.0895 8.76182C38.6204 7.88365 39.1895 6.70431 39.4808 5.78646C39.4808 5.78646 39.9751 5.79081 40.5028 5.75629C40.6715 5.74525 40.72 5.77977 40.6887 5.90318C40.6511 6.05253 40.0222 8.4752 40.5962 10.0891C40.989 11.194 41.8746 11.5493 42.3996 11.5493C43.0144 11.5493 43.6023 11.0857 43.9174 10.3974C43.9555 10.4741 43.9951 10.5483 44.0385 10.617C44.9281 12.0248 46.6479 11.7199 47.521 10.5262C47.718 10.2569 47.8298 10.0242 47.8298 10.0242C48.0171 11.1925 48.9268 11.5533 49.4478 11.5533C49.9905 11.5533 50.5057 11.331 50.9235 10.3434C50.9411 10.7783 50.9685 11.1339 51.0119 11.2459C51.0383 11.3146 51.1926 11.4005 51.3047 11.4421C51.8013 11.626 52.3076 11.5391 52.4949 11.5013C52.6247 11.475 52.726 11.3709 52.7398 11.1025C52.7763 10.3974 52.7539 9.21282 52.9679 8.3323C53.3271 6.85484 53.6622 6.28173 53.8212 5.99805C53.9102 5.83895 54.0105 5.81276 54.0141 5.98102C54.0216 6.32153 54.0386 7.32111 54.1778 8.66436C54.28 9.65208 54.4164 10.236 54.5214 10.4209C54.8209 10.9493 55.1907 10.9743 55.4919 10.9743C55.6835 10.9743 56.0842 10.9215 56.0483 10.5852C56.0308 10.4213 56.0614 9.4082 56.4156 7.95258C56.6468 7.00197 57.0324 6.14318 57.1715 5.82909C57.2229 5.71331 57.2467 5.80454 57.2458 5.82239C57.2165 6.47699 57.1508 8.61822 57.4178 9.78934C57.7799 11.3758 58.8269 11.5533 59.1918 11.5533C59.9708 11.5533 60.6079 10.9615 60.8224 9.40432C60.8742 9.02953 60.7976 8.74021 60.5683 8.74021Z" fill="#343433"/>
</g>
<defs>
<clipPath id="clip0_470_8546">
<rect width="60.5255" height="17.3682" fill="white" transform="translate(0.736328)"/>
</clipPath>
</defs>
</svg>
