<svg width="157" height="52" viewBox="0 0 157 52" fill="none" xmlns="http://www.w3.org/2000/svg">
<g clip-path="url(#clip0_345_9049)">
<path d="M41.7713 42.4161C36.2376 41.1636 30.8985 39.1149 26.4447 35.5572C21.9775 32.0461 18.617 26.7695 17.0441 20.6434C16.4941 26.8861 17.8725 33.7317 21.6085 39.6446C24.03 43.5454 27.2563 46.9299 30.8549 49.8314C25.6129 49.6515 20.3811 47.8893 15.934 44.4382C4.73244 35.7571 2.74031 19.7007 11.4802 8.57783C14.7635 4.40051 19.0932 1.51903 23.812 0C11.5808 1.3558 1.8851 11.0529 0.630797 23.2351C0.630797 23.2518 0.630797 23.2684 0.627443 23.2851C0.587198 23.6715 0.560368 24.0612 0.536891 24.4543C0.530184 24.5609 0.52683 24.6709 0.520123 24.7774C0.506708 25.0706 0.503354 25.3604 0.5 25.6569C0.5 25.8568 0.5 26.06 0.5 26.2598C0.5 26.4464 0.506708 26.6296 0.513415 26.8128C0.52683 27.1193 0.536891 27.4224 0.560368 27.7289C0.563721 27.7855 0.570429 27.8455 0.573783 27.9021C1.13386 34.9609 4.55805 41.7732 10.6183 46.4735C14.7803 49.7015 19.6131 51.487 24.5062 51.9067C24.6102 51.9167 24.7108 51.9234 24.8114 51.93C25.1568 51.9567 25.5023 51.9733 25.8477 51.9867C26.0254 51.9933 26.1998 52 26.3776 52C26.6492 52.0033 26.9209 52 27.1926 52C27.4173 51.9967 27.642 51.9933 27.8667 51.9833C28.0914 51.9734 28.3161 51.96 28.5408 51.9434C28.799 51.9267 29.0572 51.9101 29.3121 51.8834C29.4798 51.8667 29.6509 51.8468 29.8185 51.8268C30.1271 51.7901 30.4356 51.7568 30.7408 51.7102C30.7677 51.7069 30.7978 51.7002 30.8247 51.6969C31.4787 51.5969 32.1259 51.4637 32.7631 51.3171C32.8671 51.2905 32.9744 51.2705 33.075 51.2438C35.3153 50.6409 37.4852 49.7714 39.5444 48.6521C39.7188 48.5555 39.8999 48.4689 40.0743 48.3723C40.6277 48.0559 41.1744 47.7194 41.7076 47.363C43.4247 46.1804 44.9909 44.8013 46.376 43.2523C44.83 43.0257 43.2906 42.7526 41.7646 42.4228L41.7713 42.4161Z" fill="#036EB8"/>
<path d="M48.9383 29.6942C40.3996 32.2892 30.2679 32.2359 21.5951 26.876C28.0108 34.6743 38.1425 39.0582 49.0791 39.6644C51.2021 36.2733 52.557 32.3658 52.9192 28.1718C51.638 28.7481 50.31 29.2611 48.9416 29.6908L48.9383 29.6942Z" fill="#00A0E9"/>
<path d="M44.0015 23.6781C39.6483 26.3298 34.2689 27.5423 28.7922 27.0493C33.9738 28.7782 39.9535 28.9548 45.5443 27.1393C48.1367 26.3198 50.5984 25.1372 52.9225 23.7148C52.7314 21.4429 52.2484 19.2543 51.5106 17.189C49.3575 19.714 46.879 21.9526 44.0015 23.6815V23.6781Z" fill="#00A0E9"/>
<path opacity="0.8" d="M26.4447 35.5571C22.3564 32.3425 19.1972 27.6455 17.4834 22.1757C17.3526 27.7688 18.7746 33.7083 22.0647 38.915C24.4425 42.7458 27.6084 46.0637 31.1399 48.9152C30.6369 48.8986 30.1305 48.8619 29.6274 48.8153C30.0298 49.1617 30.439 49.5048 30.8515 49.838C25.6096 49.6581 20.3777 47.8959 15.9307 44.4447C4.73246 35.757 2.74033 19.7006 11.4802 8.57774C14.7032 4.48036 18.9323 1.63219 23.547 0.0898438C11.8659 1.70214 2.68331 11.0761 1.47596 22.8053C1.47596 22.8219 1.47596 22.8353 1.47596 22.8553C1.43907 23.235 1.40888 23.6181 1.38876 24.0012C1.38205 24.1078 1.3787 24.211 1.37535 24.3176C1.36529 24.6041 1.35858 24.8939 1.35522 25.1804C1.35522 25.377 1.35522 25.5735 1.35522 25.77C1.35522 25.9533 1.36193 26.1331 1.36864 26.313C1.3787 26.6128 1.39212 26.9127 1.41559 27.2125C1.41895 27.2691 1.42565 27.3257 1.42901 27.3823C1.97567 34.3112 5.33613 40.997 11.2891 45.6107C15.3739 48.7786 20.1161 50.5275 24.9187 50.9439C25.0193 50.9539 25.1199 50.9606 25.2206 50.9672C25.5593 50.9939 25.898 51.0105 26.2367 51.0239C26.4078 51.0305 26.5822 51.0339 26.7566 51.0372C27.0249 51.0405 27.2932 51.0372 27.5581 51.0372C27.7795 51.0372 27.9975 51.0305 28.2188 51.0205C28.4402 51.0105 28.6582 50.9972 28.8795 50.9805C29.131 50.9639 29.3859 50.9472 29.6408 50.9239C29.8051 50.9073 29.9728 50.8873 30.1372 50.8673C30.439 50.8306 30.7442 50.7973 31.0427 50.754C31.0695 50.754 31.0963 50.744 31.1232 50.7407C31.7671 50.6408 32.4009 50.5109 33.0281 50.3676C33.1287 50.3443 33.2327 50.321 33.3333 50.2977C35.53 49.708 37.6596 48.8552 39.682 47.7526C39.853 47.6593 40.0307 47.5761 40.2018 47.4761C40.7484 47.1663 41.2817 46.8365 41.8082 46.4868C43.2302 45.5074 44.5382 44.3815 45.7321 43.1456C44.4074 42.939 43.086 42.7059 41.7781 42.4227C36.2444 41.1702 30.9052 39.1215 26.4514 35.5638L26.4447 35.5571Z" fill="url(#paint0_linear_345_9049)"/>
<path opacity="0.8" d="M48.4051 38.9382C50.3268 35.8668 51.5711 32.3457 51.9735 28.5682C50.9842 28.9812 49.978 29.3676 48.9384 29.6941C40.9732 32.1159 31.6296 32.2258 23.366 27.8853C29.4396 34.6076 38.5719 38.3919 48.4051 38.9415V38.9382Z" fill="url(#paint1_linear_345_9049)"/>
<path d="M100.543 46.9734C100.543 47.8628 100.341 48.5157 99.939 48.9321C99.5365 49.3485 98.8893 49.5551 97.9972 49.5551H95.7669V48.3592H97.7456C98.2923 48.3592 98.6746 48.2459 98.8926 48.0194C99.1106 47.7895 99.2213 47.4098 99.2213 46.8768V42.5296H95.3645C95.2873 44.3517 94.8077 45.9074 93.929 47.1966C93.1476 48.3392 92.1314 49.1686 90.8771 49.6883V48.3925C91.8095 47.8428 92.5507 47.1133 93.094 46.2072C93.7245 45.1479 94.0531 43.922 94.0766 42.5329H90.8738V41.3503H94.0766V39.2883H95.3745V41.3503H100.543V46.98V46.9734ZM99.4326 40.7041H98.6142V38.772H99.4326V40.7041ZM100.895 40.7041H100.087V38.772H100.895V40.7041Z" fill="#3E3A39"/>
<path d="M107.478 42.6997C107.478 44.735 107.18 46.3707 106.583 47.6065C106.13 48.5393 105.436 49.3354 104.503 49.995V48.4826C105.067 47.863 105.479 47.1768 105.738 46.424C106.056 45.4846 106.217 44.2687 106.217 42.7763V39.6616H107.478V42.6997ZM115.041 42.7263C114.702 46.8803 112.747 49.1888 109.165 49.6552V39.6616H110.399V48.0529C112.375 47.4333 113.505 45.6578 113.79 42.7263H115.038H115.041Z" fill="#3E3A39"/>
<path d="M126.447 45.944C125.035 48.106 122.785 49.3618 119.689 49.7083V48.5024C121.782 48.2292 123.422 47.4664 124.606 46.2072C125.79 44.948 126.484 43.2291 126.685 41.0538H121.504C121.158 41.9199 120.675 42.6894 120.055 43.369C119.418 44.0785 118.707 44.6115 117.925 44.968V43.6222C119.216 42.7394 120.088 41.4869 120.531 39.8579H128.094C128.094 40.9272 127.96 41.9799 127.691 43.0225C127.4 44.1485 126.98 45.1245 126.444 45.9473L126.447 45.944Z" fill="#3E3A39"/>
<path d="M77.7203 30.3175V25.7204H73.4376V21.6364H82.3485V33.6187C79.7091 34.3349 77.1401 34.7413 74.4672 34.7779C70.939 34.7779 67.7496 33.7553 65.4221 31.1036C63.3662 28.7551 62.4741 25.6238 62.4741 22.4925C62.4741 19.8042 63.1583 17.0793 64.805 14.7674C66.9648 11.6361 70.3555 10.2403 74.2626 10.207C76.6974 10.207 78.8908 10.6501 81.1512 11.4329V15.6535H80.571C78.8237 14.7708 76.3889 14.361 74.4705 14.361C72.2101 14.361 70.0503 15.2105 68.7155 17.0826C67.6859 18.545 67.2398 20.7603 67.2398 22.5291C67.2398 27.5659 69.9128 30.6639 75.1211 30.6639C76.0132 30.6639 76.9355 30.5606 77.7237 30.3241L77.7203 30.3175Z" fill="#3E3A39"/>
<path d="M114.491 10.5732H119.119V29.158C119.119 29.7376 119.599 30.2473 120.182 30.2473H131.152V34.398H119.22C116.614 34.398 114.491 32.2893 114.491 29.7343V10.5732Z" fill="#3E3A39"/>
<path d="M140.358 19.9706L149.37 10.5732H155.333L145.463 20.377L156.497 34.398H150.638L142.31 23.4716L140.358 25.4804V34.398H135.73V10.5732H140.358V19.9706Z" fill="#3E3A39"/>
<path d="M110.084 34.3983L101.69 12.4124C101.21 11.1532 99.9759 10.3037 98.5371 10.3037C97.0983 10.3037 95.8306 11.1199 95.351 12.4124L87.0605 34.3983H91.6518L93.5836 29.125C95.0593 28.3255 96.7563 27.8591 98.5841 27.8591C100.248 27.8591 101.81 28.2422 103.189 28.9184L105.188 34.3983H110.087H110.084ZM98.574 24.5679C97.2895 24.5679 96.0822 24.8277 94.9955 25.2575L98.4298 15.8835L101.794 25.1109C100.804 24.7644 99.7176 24.5646 98.5706 24.5646L98.574 24.5679Z" fill="#3E3A39"/>
</g>
<defs>
<linearGradient id="paint0_linear_345_9049" x1="7.38528" y1="41.8864" x2="37.8641" y2="16.1368" gradientUnits="userSpaceOnUse">
<stop stop-color="white"/>
<stop offset="0.01" stop-color="white" stop-opacity="0.86"/>
<stop offset="0.04" stop-color="white" stop-opacity="0.6"/>
<stop offset="0.06" stop-color="white" stop-opacity="0.39"/>
<stop offset="0.08" stop-color="white" stop-opacity="0.22"/>
<stop offset="0.1" stop-color="white" stop-opacity="0.1"/>
<stop offset="0.12" stop-color="white" stop-opacity="0.03"/>
<stop offset="0.13" stop-color="white" stop-opacity="0"/>
</linearGradient>
<linearGradient id="paint1_linear_345_9049" x1="37.7133" y1="27.3556" x2="37.1409" y2="38.3523" gradientUnits="userSpaceOnUse">
<stop offset="0.7" stop-color="white" stop-opacity="0"/>
<stop offset="0.72" stop-color="white" stop-opacity="0.03"/>
<stop offset="0.76" stop-color="white" stop-opacity="0.1"/>
<stop offset="0.81" stop-color="white" stop-opacity="0.22"/>
<stop offset="0.86" stop-color="white" stop-opacity="0.39"/>
<stop offset="0.91" stop-color="white" stop-opacity="0.6"/>
<stop offset="0.97" stop-color="white" stop-opacity="0.86"/>
<stop offset="1" stop-color="white"/>
</linearGradient>
<clipPath id="clip0_345_9049">
<rect width="156" height="52" fill="white" transform="translate(0.5)"/>
</clipPath>
</defs>
</svg>
