<svg width="35" height="23" viewBox="0 0 35 23" fill="none" xmlns="http://www.w3.org/2000/svg">
<path d="M1.94444 23C1.39352 23 0.932037 22.816 0.56 22.448C0.186667 22.0813 0 21.6264 0 21.0833C0 20.5403 0.186667 20.0854 0.56 19.7187C0.932037 19.3507 1.39352 19.1667 1.94444 19.1667H33.0556C33.6065 19.1667 34.068 19.3507 34.44 19.7187C34.8133 20.0854 35 20.5403 35 21.0833C35 21.6264 34.8133 22.0813 34.44 22.448C34.068 22.816 33.6065 23 33.0556 23H1.94444ZM1.94444 13.4167C1.39352 13.4167 0.932037 13.2327 0.56 12.8647C0.186667 12.4979 0 12.0431 0 11.5C0 10.9569 0.186667 10.5014 0.56 10.1334C0.932037 9.76669 1.39352 9.58333 1.94444 9.58333H33.0556C33.6065 9.58333 34.068 9.76669 34.44 10.1334C34.8133 10.5014 35 10.9569 35 11.5C35 12.0431 34.8133 12.4979 34.44 12.8647C34.068 13.2327 33.6065 13.4167 33.0556 13.4167H1.94444ZM1.94444 3.83333C1.39352 3.83333 0.932037 3.64997 0.56 3.28325C0.186667 2.91525 0 2.45972 0 1.91667C0 1.37361 0.186667 0.918084 0.56 0.550084C0.932037 0.183361 1.39352 0 1.94444 0H33.0556C33.6065 0 34.068 0.183361 34.44 0.550084C34.8133 0.918084 35 1.37361 35 1.91667C35 2.45972 34.8133 2.91525 34.44 3.28325C34.068 3.64997 33.6065 3.83333 33.0556 3.83333H1.94444Z" fill="white"/>
</svg>
