<svg width="106" height="88" viewBox="0 0 106 88" fill="none" xmlns="http://www.w3.org/2000/svg">
<g clip-path="url(#clip0_47_164)">
<path d="M29.8314 65.2766L30.0698 63.5998L33.6065 38.7197L33.7388 37.7887L35.6853 24.0951C34.5809 23.1464 33.4097 22.2787 32.1807 21.4987C27.365 18.448 21.3757 16.5967 15.9364 18.3023C13.025 19.2638 10.5825 21.2903 9.09706 23.9768C9.05596 24.0476 9.01753 24.1163 8.98145 24.1853C7.77661 26.4784 7.39355 29.106 8.29651 31.5576C9.9106 35.962 14.648 38.2024 18.8407 40.2937C23.031 42.3846 27.5675 45.4506 27.9973 50.1222C27.2413 48.8464 26.1597 47.7954 24.8636 47.0773C23.5676 46.3591 22.1039 45.9998 20.6229 46.036C19.1419 46.0723 17.697 46.503 16.4368 47.2838C15.1766 48.0646 14.1465 49.1673 13.4523 50.4786C13.3384 50.6921 13.2311 50.909 13.1329 51.1295C12.8976 51.6594 12.7212 52.2136 12.6066 52.7821C11.7438 57.1216 14.5079 61.534 18.2044 63.9567C21.5474 66.1449 25.5278 67.0575 29.4721 67.8047L29.8314 65.2766Z" fill="#545454"/>
<path d="M30.0699 63.5998L29.8315 65.2766C29.2811 62.8631 28.2481 60.5865 26.7947 58.5846C25.3412 56.5826 23.4977 54.8967 21.3753 53.6288C18.863 52.1569 16.0388 51.3005 13.1329 51.1295C13.2312 50.909 13.3384 50.6921 13.4523 50.4786C14.5784 50.5645 15.6951 50.7472 16.7898 51.0248C20.6965 52.0174 24.18 54.243 26.7253 57.3727C28.2153 59.2231 29.3493 61.3345 30.0699 63.5998Z" fill="#ABABAB"/>
<path d="M33.7389 37.7887L33.6065 38.7197C32.8095 37.6841 31.9276 36.7168 30.9701 35.828C27.9971 33.0536 24.512 30.7734 20.9066 28.9188C17.2125 27.0112 13.2989 25.5639 9.25321 24.6091C9.16222 24.587 9.08325 24.5306 9.03266 24.4517C8.98207 24.3728 8.96373 24.2774 8.98145 24.1853C8.99101 24.1033 9.03256 24.0283 9.09703 23.9768C9.13028 23.9533 9.16859 23.938 9.20886 23.932C9.24914 23.9261 9.29023 23.9298 9.32881 23.9428C9.82815 24.0592 10.3244 24.18 10.8213 24.3128C14.9451 25.4086 18.9167 27.0139 22.6446 29.0916C26.2436 31.0913 29.7388 33.5021 32.5876 36.4958C32.9897 36.9094 33.3752 37.3398 33.7389 37.7887Z" fill="#ABABAB"/>
<path d="M14.8882 13.8655C15.6633 13.9804 16.3849 13.444 16.5 12.6676C16.615 11.8911 16.08 11.1686 15.305 11.0537C14.5299 10.9388 13.8083 11.4751 13.6932 12.2516C13.5782 13.0281 14.1132 13.7506 14.8882 13.8655Z" fill="#545454"/>
<path d="M71.7639 26.8173L71.3631 26.7579L72.9933 15.7581C73.1172 14.922 73.0755 14.0698 72.8707 13.25C72.6658 12.4303 72.3017 11.6591 71.7992 10.9805C71.2967 10.3018 70.6657 9.72905 69.9421 9.29484C69.2185 8.86062 68.4165 8.57348 67.582 8.44979L44.3194 5.00214C42.634 4.75235 40.9182 5.18353 39.5494 6.20084C38.1807 7.21814 37.2712 8.73823 37.0209 10.4267L28.0773 70.7728C27.827 72.4613 28.2566 74.1798 29.2714 75.5504C30.2862 76.921 31.8032 77.8313 33.4886 78.0811L56.7512 81.5287C58.4366 81.7785 60.1524 81.3473 61.5211 80.33C62.8899 79.3127 63.7994 77.7926 64.0497 76.1041L70.2026 34.5878L70.6034 34.6472L71.7639 26.8173Z" fill="#E4E4E4"/>
<path d="M71.6343 15.602L62.7037 75.8599C62.6906 75.948 62.6755 76.0346 62.6571 76.1208C62.4107 77.3247 61.7131 78.3886 60.7078 79.0935C59.7025 79.7984 58.4661 80.0907 57.2527 79.9104L33.8786 76.4462C32.6622 76.2663 31.5615 75.6251 30.8039 74.6551C30.0464 73.6852 29.69 72.4606 29.8082 71.2344C29.8157 71.1533 29.8256 71.0715 29.8378 70.989L38.7684 10.7311C38.9552 9.47015 39.6343 8.33486 40.6564 7.57501C41.6784 6.81516 42.9598 6.49299 44.2185 6.67936L47.0549 7.09974C46.8644 7.42201 46.756 7.7862 46.739 8.16026C46.7221 8.53432 46.7972 8.90676 46.9578 9.24478C47.1184 9.58281 47.3596 9.87605 47.66 10.0987C47.9604 10.3213 48.3109 10.4665 48.6806 10.5215L62.0078 12.4966C62.3776 12.5512 62.7551 12.5139 63.1072 12.388C63.4592 12.262 63.775 12.0513 64.0268 11.7744C64.2785 11.4975 64.4584 11.1629 64.5507 10.8C64.643 10.4372 64.6448 10.0572 64.556 9.69351L67.5925 10.1435C68.8513 10.3302 69.9843 11.0102 70.7422 12.0338C71.5002 13.0574 71.821 14.3409 71.6343 15.602Z" fill="#ABABAB"/>
<path d="M64.4674 60.9826L32.4641 56.2395C32.3517 56.2227 32.2506 56.162 32.1829 56.0705C32.1152 55.9791 32.0865 55.8645 32.103 55.7519L37.9326 16.4174C37.9495 16.3048 38.0102 16.2035 38.1015 16.1356C38.1928 16.0678 38.3072 16.039 38.4196 16.0555L70.4229 20.7986C70.5353 20.8154 70.6365 20.8762 70.7042 20.9676C70.7719 21.059 70.8006 21.1736 70.7841 21.2862L64.9545 60.6207C64.9376 60.7333 64.8769 60.8346 64.7856 60.9025C64.6943 60.9703 64.5799 60.9991 64.4674 60.9826Z" fill="#545454"/>
<path d="M67.6674 23.1952L40.4272 19.1581C40.3147 19.1415 40.2002 19.1703 40.1089 19.2382C40.0175 19.3061 39.9568 19.4075 39.94 19.5202L35.7278 47.9415C35.7114 48.0541 35.7403 48.1685 35.808 48.2598C35.8758 48.351 35.9769 48.4116 36.0892 48.4283L63.3294 52.4654C63.4417 52.4821 63.5561 52.4534 63.6474 52.3857C63.7387 52.3181 63.7995 52.2169 63.8165 52.1044L68.0287 23.6831C68.0453 23.5704 68.0166 23.4557 67.9489 23.3642C67.8811 23.2728 67.7799 23.212 67.6674 23.1952Z" fill="#ABABAB"/>
<path d="M40.5737 14.9109C41.1807 15.0009 41.7457 14.5809 41.8359 13.9729C41.926 13.3648 41.507 12.799 40.9001 12.709C40.2931 12.6191 39.728 13.0391 39.6379 13.6471C39.5478 14.2551 39.9668 14.821 40.5737 14.9109Z" fill="#C5C5C5"/>
<path d="M40.6362 50.5343C39.2084 47.2283 40.4283 43.4559 41.2703 39.9527C42.5315 34.6965 42.9013 29.2658 42.3642 23.8877C43.6613 25.8577 44.3689 28.1585 44.4034 30.5187C44.4284 32.4863 43.9823 34.4407 44.0495 36.4072C44.1935 40.6241 46.6751 44.7756 45.5915 48.8535C45.352 49.7549 44.8571 50.6892 43.9803 51.0032C42.9905 51.3576 41.9289 50.8017 41.0255 50.2644" fill="#545454"/>
<path d="M37.2829 51.3218C37.1081 51.0844 36.8463 50.9264 36.555 50.8825C36.2638 50.8385 35.967 50.9123 35.73 51.0876C35.4929 51.2629 35.335 51.5252 35.291 51.817C35.2471 52.1088 35.3206 52.406 35.4954 52.6434L35.4986 52.6477L36.8217 54.4343L38.606 53.1083C38.8417 52.9321 38.9981 52.6695 39.0409 52.378C39.0837 52.0866 39.0093 51.7901 38.8342 51.5536C38.659 51.3171 38.3974 51.1599 38.1066 51.1164C37.8158 51.073 37.5196 51.1468 37.2829 51.3218Z" fill="#C5C5C5"/>
<path d="M42.1184 52.0383C41.9436 51.8009 41.6818 51.6429 41.3905 51.599C41.0993 51.5551 40.8025 51.6289 40.5654 51.8042C40.3284 51.9794 40.1705 52.2418 40.1265 52.5336C40.0825 52.8253 40.156 53.1226 40.3309 53.36L40.3341 53.3643L41.6571 55.1508L43.4415 53.8248C43.6772 53.6486 43.8336 53.386 43.8764 53.0946C43.9191 52.8032 43.8448 52.5067 43.6697 52.2702C43.4945 52.0337 43.2329 51.8765 42.9421 51.833C42.6513 51.7895 42.3551 51.8634 42.1184 52.0383Z" fill="#C5C5C5"/>
<path d="M46.9539 52.7551C46.779 52.5177 46.5172 52.3597 46.226 52.3158C45.9347 52.2719 45.6379 52.3457 45.4009 52.521C45.1638 52.6962 45.006 52.9586 44.962 53.2504C44.918 53.5421 44.9915 53.8394 45.1663 54.0768L45.1695 54.0811L46.4926 55.8676L48.2769 54.5416C48.5126 54.3654 48.669 54.1028 48.7118 53.8114C48.7546 53.52 48.6803 53.2235 48.5051 52.987C48.33 52.7505 48.0683 52.5932 47.7775 52.5498C47.4867 52.5063 47.1905 52.5801 46.9539 52.7551Z" fill="#C5C5C5"/>
<path d="M60.8814 17.6778L45.3843 15.3811C45.2728 15.3647 45.1657 15.3264 45.069 15.2685C44.9723 15.2106 44.888 15.1342 44.8209 15.0436C44.7537 14.953 44.7051 14.8501 44.6777 14.7406C44.6503 14.6312 44.6447 14.5173 44.6612 14.4057C44.6778 14.2941 44.7161 14.1868 44.7741 14.09C44.8321 13.9931 44.9085 13.9087 44.999 13.8415C45.0896 13.7743 45.1924 13.7256 45.3018 13.6982C45.4111 13.6709 45.5247 13.6653 45.6361 13.682L61.1332 15.9787C61.2447 15.9951 61.3518 16.0334 61.4485 16.0913C61.5452 16.1492 61.6295 16.2256 61.6967 16.3162C61.7638 16.4068 61.8125 16.5097 61.8399 16.6192C61.8673 16.7287 61.8729 16.8425 61.8563 16.9541C61.8398 17.0658 61.8014 17.1731 61.7435 17.2699C61.6855 17.3667 61.6091 17.4511 61.5185 17.5183C61.428 17.5855 61.3251 17.6342 61.2158 17.6616C61.1065 17.689 60.9928 17.6945 60.8814 17.6778Z" fill="#C5C5C5"/>
<path d="M63.3738 68.3601L31.3707 63.6171C31.2582 63.6005 31.1437 63.6293 31.0523 63.6972C30.961 63.7651 30.9003 63.8665 30.8835 63.9792L29.8082 71.2345C29.6899 72.4607 30.0464 73.6853 30.8039 74.6553C31.5615 75.6252 32.6622 76.2664 33.8786 76.4464L57.2527 79.9105C58.4661 80.0909 59.7025 79.7985 60.7078 79.0936C61.7131 78.3887 62.4107 77.3249 62.6571 76.1209L63.735 68.848C63.7516 68.7353 63.723 68.6206 63.6552 68.5291C63.5875 68.4377 63.4863 68.3769 63.3738 68.3601Z" fill="#545454"/>
<path d="M60.6185 70.7568L33.3783 66.7196C33.2658 66.703 33.1513 66.7318 33.06 66.7997C32.9686 66.8676 32.9079 66.969 32.8911 67.0817L31.6445 75.4931C32.2946 75.9986 33.0642 76.327 33.8786 76.4464L57.2527 79.9105C58.0924 80.0362 58.9505 79.9354 59.7387 79.6185L60.9798 71.2446C60.9964 71.1319 60.9677 71.0172 60.8999 70.9258C60.8322 70.8343 60.731 70.7735 60.6185 70.7568Z" fill="#ABABAB"/>
<path d="M33.5248 62.4725C34.1317 62.5624 34.6968 62.1424 34.7869 61.5344C34.8771 60.9263 34.4581 60.3605 33.8511 60.2705C33.2442 60.1806 32.6791 60.6006 32.589 61.2086C32.4989 61.8167 32.9179 62.3825 33.5248 62.4725Z" fill="#E4E4E4"/>
<path d="M53.8325 65.2394L38.3354 62.9426C38.2239 62.9262 38.1168 62.888 38.0201 62.8301C37.9235 62.7722 37.8391 62.6957 37.772 62.6051C37.7048 62.5146 37.6562 62.4116 37.6288 62.3021C37.6014 62.1927 37.5958 62.0789 37.6123 61.9672C37.6289 61.8556 37.6672 61.7483 37.7252 61.6515C37.7832 61.5547 37.8596 61.4702 37.9501 61.403C38.0407 61.3358 38.1436 61.2871 38.2529 61.2597C38.3622 61.2324 38.4758 61.2269 38.5872 61.2435L54.0843 63.5403C54.1958 63.5567 54.3029 63.5949 54.3996 63.6528C54.4963 63.7107 54.5806 63.7871 54.6478 63.8777C54.7149 63.9683 54.7636 64.0713 54.791 64.1807C54.8184 64.2902 54.824 64.404 54.8074 64.5156C54.7909 64.6273 54.7525 64.7346 54.6946 64.8314C54.6366 64.9282 54.5602 65.0126 54.4696 65.0798C54.3791 65.1471 54.2762 65.1957 54.1669 65.2231C54.0576 65.2505 53.944 65.256 53.8325 65.2394Z" fill="#E4E4E4"/>
<path d="M43.0187 77.801L34.9666 76.6076C36.026 75.1129 37.7344 74.0204 39.5283 74.2154C39.7986 74.2452 40.0647 74.3051 40.3217 74.3938C40.4298 74.43 40.5347 74.4726 40.6393 74.5173C41.2973 74.795 41.8668 75.2478 42.2862 75.8266C42.7057 76.4054 42.959 77.0881 43.0187 77.801Z" fill="#919191"/>
<path d="M55.8976 79.7097L44.9639 78.0893C45.2064 77.6116 45.4248 77.122 45.6182 76.6223C46.4245 74.5691 47.2783 72.2564 49.2697 71.3161C50.3784 70.7918 51.6223 70.8637 52.742 71.3334C52.7759 71.3474 52.8107 71.3627 52.8442 71.3789C54.1604 71.9638 55.2073 73.0252 55.7754 74.3505C56.4711 76.0446 56.4033 77.9271 55.8976 79.7097Z" fill="#919191"/>
<path d="M40.5197 76.1041C40.45 76.5383 40.3471 76.9666 40.212 77.385L39.8976 77.3385C40.2073 76.3886 40.3508 75.3924 40.3217 74.3938C40.4298 74.4301 40.5347 74.4726 40.6392 74.5174C40.6456 75.0487 40.6056 75.5797 40.5197 76.1041Z" fill="#ABABAB"/>
<path d="M52.8699 71.4862C52.8357 71.7241 52.7992 71.9629 52.7572 72.2008C52.4143 74.1797 51.8267 76.1083 51.0079 77.9419C50.8628 78.2692 50.7102 78.5943 50.55 78.9171L50.2269 78.8692C50.5141 78.2952 50.7773 77.7097 51.0174 77.1198C51.7582 75.3094 52.2743 73.4149 52.5542 71.4788C52.561 71.435 52.5842 71.3955 52.6191 71.3685C52.6541 71.3414 52.6981 71.3288 52.742 71.3333C52.7807 71.3347 52.8173 71.351 52.8442 71.3788C52.8566 71.3935 52.8653 71.4108 52.8698 71.4294C52.8742 71.4481 52.8743 71.4675 52.8699 71.4862Z" fill="#ABABAB"/>
<path d="M58.3731 74.3762C58.7373 74.4301 59.0763 74.1781 59.1304 73.8133C59.1845 73.4485 58.9331 73.109 58.5689 73.055C58.2048 73.001 57.8657 73.253 57.8116 73.6179C57.7576 73.9827 58.009 74.3222 58.3731 74.3762Z" fill="#919191"/>
<path d="M49.7125 23.8261C50.0766 23.8801 50.4157 23.6281 50.4697 23.2633C50.5238 22.8984 50.2724 22.5589 49.9083 22.505C49.5441 22.451 49.205 22.703 49.151 23.0678C49.0969 23.4326 49.3483 23.7721 49.7125 23.8261Z" fill="#C5C5C5"/>
<path d="M61.34 29.4872C61.7041 29.5412 62.0432 29.2892 62.0972 28.9244C62.1513 28.5596 61.8999 28.2201 61.5358 28.1661C61.1716 28.1121 60.8325 28.3641 60.7785 28.7289C60.7244 29.0938 60.9758 29.4333 61.34 29.4872Z" fill="#E4E4E4"/>
<path d="M59.0196 42.8701C59.3838 42.924 59.7228 42.672 59.7769 42.3072C59.831 41.9424 59.5796 41.6029 59.2154 41.5489C58.8512 41.4949 58.5122 41.7469 58.4581 42.1117C58.4041 42.4766 58.6554 42.8161 59.0196 42.8701Z" fill="#E4E4E4"/>
<path d="M55.1683 48.7331L54.9343 47.2357C54.9069 46.8913 54.8583 46.5489 54.7886 46.2105C54.5111 44.6122 53.8609 41.3755 53.0344 37.9721L51.7299 36.2103L51.3468 35.87L50.9844 35.5497L50.7882 35.6837L48.9175 36.9614L48.8906 37.0598L46.4595 46.0517C46.4595 46.0517 46.4525 46.0766 46.4396 46.1253C46.4117 46.2303 46.3541 46.4445 46.275 46.7512C46.1255 47.3277 45.8729 48.3355 45.5818 49.6099L55.5352 51.085L55.1683 48.7331Z" fill="#E4E4E4"/>
<path opacity="0.2" d="M49.0795 41.1791L48.2748 43.7281L50.9284 45.3152L49.0795 41.1791Z" fill="black"/>
<path d="M55.8719 30.2468C55.4415 29.6087 54.8286 29.1158 54.1135 28.8328C53.3984 28.5498 52.6146 28.4899 51.8647 28.661C51.1148 28.8321 50.4339 29.2261 49.9112 29.7915C49.3886 30.3568 49.0486 31.0671 48.9358 31.8292L48.5176 34.6509C48.4977 34.7858 48.532 34.9231 48.6131 35.0326C48.6941 35.1421 48.8153 35.2148 48.9499 35.2348L55.4855 36.2034C55.62 36.2231 55.7569 36.1885 55.866 36.1072C55.9751 36.0259 56.0476 35.9046 56.0675 35.7699L56.4857 32.9481C56.6263 32.0023 56.4073 31.0382 55.8719 30.2468Z" fill="#2F2E41"/>
<path d="M52.9643 35.6555C54.4928 35.882 55.9158 34.8243 56.1427 33.2931C56.3697 31.7618 55.3146 30.3369 53.7861 30.1104C52.2576 29.8838 50.8346 30.9415 50.6076 32.4728C50.3807 34.004 51.4358 35.4289 52.9643 35.6555Z" fill="#FFB8B8"/>
<path d="M55.8719 30.2467C55.5428 30.0548 55.18 29.9277 54.8032 29.8723L54.2394 29.7887C53.7647 29.7184 53.28 29.7627 52.8257 29.9179C52.3713 30.0731 51.9605 30.3346 51.6273 30.6809C51.6051 30.7023 51.5849 30.7252 51.5647 30.747C51.1601 31.1897 50.8973 31.7438 50.8102 32.3375L50.8019 32.3937L51.9921 32.57L52.5675 31.4908L52.48 32.6424L53.0954 32.7336L53.385 32.1892L53.3405 32.7699C54.5568 33.4371 55.8966 33.6045 57.3374 33.3623L57.3457 33.3061C57.4339 32.7068 57.3406 32.0949 57.0779 31.5495C56.8151 31.0041 56.395 30.5503 55.8719 30.2467Z" fill="#2F2E41"/>
<path d="M53.343 35.6856C53.3415 35.6788 53.3395 35.6721 53.337 35.6656C53.0698 34.8991 52.7642 33.741 52.891 32.7033C52.9671 32.0834 53.1988 31.5057 53.6861 31.0817L53.7791 30.9998L50.558 30.5225L49.8399 35.3678L50.7882 35.6839L51.3468 35.8702L52.6898 36.319C52.7188 36.3287 52.7486 36.3357 52.7788 36.34C52.8586 36.3518 52.94 36.3445 53.0165 36.3186C53.0929 36.2928 53.1622 36.2492 53.2186 36.1914C53.2999 36.1101 53.3507 36.0032 53.3623 35.8887C53.3703 35.8204 53.3637 35.7511 53.343 35.6856Z" fill="#2F2E41"/>
<path opacity="0.2" d="M46.5456 45.9346C47.1555 46.8982 48.0679 47.6312 49.1393 48.0186C50.2108 48.406 51.3805 48.4257 52.4647 48.0746L53.1113 47.8653L46.5456 45.9346Z" fill="black"/>
<path d="M76.5195 58.9086C76.5567 58.7196 76.6348 58.5411 76.7483 58.3855C76.8619 58.23 77.008 58.1013 77.1766 58.0084C77.3451 57.9156 77.5319 57.8609 77.7237 57.8482C77.9156 57.8355 78.1079 57.865 78.2871 57.9348L80.3677 55.7607L81.9943 56.7043L79.0131 59.7333C78.876 60.0271 78.636 60.2604 78.3387 60.3889C78.0414 60.5175 77.7074 60.5323 77.4001 60.4307C77.0927 60.329 76.8333 60.1179 76.671 59.8374C76.5087 59.5569 76.4548 59.2264 76.5195 58.9086Z" fill="#A0616A"/>
<path d="M78.7165 57.0992L82.5394 52.3984L81.7866 48.8841L84.1561 44.6008L84.2147 44.637C84.2531 44.6607 85.1537 45.2348 85.0678 46.8001L86.1083 53.231L79.8994 59.2255L78.7165 57.0992Z" fill="#E4E4E4"/>
<path d="M64.9108 35.6883C65.096 35.7399 65.2676 35.8317 65.4136 35.957C65.5595 36.0823 65.6762 36.2382 65.7555 36.4137C65.8348 36.5891 65.8747 36.7799 65.8724 36.9725C65.8702 37.1651 65.8258 37.3549 65.7423 37.5285L67.7443 39.7734L66.6785 41.3255L63.8959 38.1155C63.6141 37.9559 63.4006 37.6983 63.2958 37.3915C63.191 37.0848 63.2022 36.7501 63.3273 36.4509C63.4524 36.1517 63.6827 35.9088 63.9745 35.7682C64.2664 35.6277 64.5995 35.5992 64.9108 35.6883Z" fill="#A0616A"/>
<path d="M66.5405 38.0215L70.9216 42.2006L74.4779 41.7186L78.5565 44.4141L78.516 44.4698C78.4894 44.5064 77.8479 45.3618 76.2966 45.1558L69.8151 45.701L64.3322 39.0397L66.5405 38.0215Z" fill="#E4E4E4"/>
<path d="M69.269 81.35L67.5679 81.0978L67.7328 74.4048L70.2434 74.777L69.269 81.35Z" fill="#A0616A"/>
<path d="M65.9111 80.3547L69.7056 80.9171L69.3989 82.9864L64.0528 82.1941L64.1291 81.6792C64.1902 81.267 64.4122 80.8958 64.7464 80.6474C65.0806 80.399 65.4996 80.2937 65.9111 80.3547Z" fill="#2F2E41"/>
<path d="M76.0676 82.3578L74.3667 82.1056L74.5316 75.4126L77.0421 75.7848L76.0676 82.3578Z" fill="#A0616A"/>
<path d="M72.7099 81.3623L76.5043 81.9247L76.1977 83.994L70.8515 83.2016L70.9278 82.6868C70.9889 82.2745 71.211 81.9034 71.5452 81.655C71.8794 81.4066 72.2983 81.3013 72.7099 81.3623Z" fill="#2F2E41"/>
<path d="M80.2285 58.4548L78.6477 68.1644L76.6136 80.932L73.6023 80.2016L74.6924 62.3221L70.1336 79.6875L66.9822 79.2205L69.3018 61.3812L70.9885 57.6537L80.2285 58.4548Z" fill="#2F2E41"/>
<path d="M70.6755 57.6681L70.2135 57.579L74.1402 45.9785L73.7898 42.2444C73.7716 42.0501 73.8252 41.8559 73.9404 41.6985C74.0556 41.5411 74.2244 41.4314 74.4149 41.3903L76.0947 41.0284L76.8865 39.5629L81.251 40.6991L81.1807 41.9257C81.6384 42.1514 85.4007 44.0585 84.9046 45.5227C84.415 46.968 82.131 51.4046 82.0151 51.6295L80.7432 58.2892L80.7064 58.3013C80.662 58.3158 77.3816 59.3687 74.0603 58.8762C72.8907 58.7028 71.7154 58.3376 70.6755 57.6681Z" fill="#E4E4E4"/>
<path d="M82.0929 37.8498C83.1687 36.4248 82.888 34.3966 81.466 33.3196C80.044 32.2427 78.0192 32.525 76.9434 33.95C75.8676 35.3751 76.1482 37.4033 77.5703 38.4802C78.9923 39.5571 81.0171 39.2749 82.0929 37.8498Z" fill="#A0616A"/>
<path d="M81.6459 39.3804C80.941 39.9397 79.8624 39.4235 79.9146 38.5245C79.9186 38.4547 79.9293 38.3854 79.9466 38.3177C80.0458 37.9307 80.3254 37.6075 80.3326 37.1845C80.3356 37.0794 80.3118 36.9752 80.2634 36.882C79.8748 36.1595 78.5968 36.9324 78.2263 36.2755C77.9992 35.8728 78.4134 35.3531 78.2578 34.9175C78.0525 34.3426 77.1716 34.4806 76.6869 34.1106C76.1475 33.6989 76.3165 32.8012 76.7846 32.3092C77.3555 31.7093 78.2353 31.4745 79.0595 31.544C79.8838 31.6135 80.6619 31.9548 81.3802 32.3654C82.1963 32.832 82.9859 33.4266 83.4059 34.2687C83.9166 35.2927 83.7941 36.5494 83.3091 37.5864C83.0141 38.2172 82.2215 38.9237 81.6459 39.3804Z" fill="#2F2E41"/>
<path d="M56.5899 48.6807L54.8784 48.4271C54.8234 48.4191 54.7735 48.3909 54.7383 48.3479C54.7031 48.3049 54.6852 48.2503 54.6881 48.1947L54.8669 44.6262L57.7032 45.0466L56.8393 48.5135C56.826 48.5675 56.7931 48.6146 56.7469 48.6456C56.7008 48.6765 56.6447 48.689 56.5899 48.6807Z" fill="#C5C5C5"/>
<path d="M57.6331 45.4884L54.8059 45.0694C54.7473 45.0606 54.6946 45.029 54.6594 44.9813C54.6241 44.9337 54.6092 44.874 54.6178 44.8153L54.6965 44.2843C54.7052 44.2256 54.7369 44.1728 54.7844 44.1375C54.832 44.1021 54.8916 44.0871 54.9502 44.0957L57.7774 44.5147C57.836 44.5235 57.8887 44.5551 57.9239 44.6028C57.9592 44.6504 57.9741 44.7101 57.9655 44.7688L57.8868 45.2998C57.878 45.3585 57.8464 45.4113 57.7988 45.4466C57.7513 45.482 57.6917 45.497 57.6331 45.4884Z" fill="#E4E4E4"/>
<path d="M56.2705 46.7235C56.1677 46.5663 56.0317 46.4336 55.872 46.3347C55.7124 46.2359 55.533 46.1733 55.3466 46.1514C55.1602 46.1295 54.9712 46.1488 54.793 46.208C54.6148 46.2672 54.4517 46.3648 54.3152 46.4939L51.6373 45.2939L50.5116 46.7466L54.317 48.388C54.5487 48.6033 54.8511 48.7259 55.1671 48.7326C55.4831 48.7393 55.7906 48.6297 56.0314 48.4246C56.2722 48.2194 56.4295 47.9329 56.4736 47.6194C56.5177 47.3059 56.4454 46.9871 56.2705 46.7235Z" fill="#FFB8B8"/>
<path d="M51.8545 45.1907L50.6536 44.1475L50.302 43.9131L48.7126 42.8528C48.789 42.6863 49.0111 42.1882 49.246 41.5502C49.7952 40.0575 50.4097 37.7981 49.3649 37.2315C49.2171 37.149 49.057 37.0911 48.8906 37.0599C48.668 37.0186 48.4383 37.0365 48.2247 37.112C47.3331 37.4221 46.824 38.591 46.8052 38.6344L45.3652 41.2957C45.2514 41.4116 44.0788 42.6172 44.0878 43.6402C44.0863 43.7867 44.1151 43.9319 44.1725 44.0667C44.2298 44.2015 44.3145 44.3229 44.421 44.4232C45.0538 45.0366 45.7283 45.6054 46.4396 46.1254C46.6051 46.2444 46.7675 46.3559 46.927 46.4598C47.8203 47.04 48.6323 47.3887 49.3422 47.4939C49.574 47.5302 49.8095 47.5375 50.0432 47.5157L52.8098 47.8616L52.8391 47.7849L52.8503 47.7551L53.4675 46.1138L53.642 45.6491L51.8545 45.1907Z" fill="#E4E4E4"/>
</g>
<defs>
<clipPath id="clip0_47_164">
<rect width="94.6551" height="73.8772" fill="white" transform="translate(11.4476 0.130371) rotate(8.43022)"/>
</clipPath>
</defs>
</svg>
