<svg width="207" height="88" viewBox="0 0 207 88" fill="none" xmlns="http://www.w3.org/2000/svg">
<g clip-path="url(#clip0_36_3041)">
<path d="M79.0683 46.3145L77.3286 61.8034L75.9261 61.5925L75.6639 63.3362L79.5838 63.9256L79.846 62.1819L78.7027 62.01L81.1003 46.62L79.0683 46.3145Z" fill="#424242"/>
<path d="M75.6113 59.0192C76.208 59.1089 76.6183 59.6695 76.5278 60.2714L75.8505 64.7758C75.76 65.3777 75.203 65.7929 74.6063 65.7032C74.0096 65.6135 73.5993 65.0528 73.6898 64.451L74.3671 59.9465C74.4576 59.3447 75.0147 58.9295 75.6113 59.0192Z" fill="#424242"/>
<path d="M81.0851 59.8422C81.6818 59.9319 82.0921 60.4926 82.0016 61.0944L81.3243 65.5989C81.2338 66.2007 80.6768 66.6159 80.0801 66.5262C79.4834 66.4365 79.0731 65.8759 79.1636 65.274L79.8409 60.7696C79.9314 60.1677 80.4885 59.7525 81.0851 59.8422Z" fill="#424242"/>
<path d="M93.2594 38.6349L71.2291 34.2823L74.9265 33.2037L94.3292 36.4183L93.2594 38.6349Z" fill="#B6B6B6"/>
<path d="M4.4748 27.5949L7.30679 26.9806L90.1521 41.666L93.8496 40.5875L90.9235 50.2516L25.9232 33.2162L4.4748 27.5949Z" fill="#B6B6B6"/>
<path d="M25.0028 36.5508L25.9232 33.2162L90.9235 50.2516L89.8096 55.2105L25.0028 36.5508Z" fill="#424242"/>
<path d="M67.9339 53.2585C71.7127 53.8267 75.2701 51.0021 75.8794 46.9495C76.4888 42.8969 73.9194 39.151 70.1405 38.5828C66.3616 38.0146 62.8043 40.8393 62.195 44.8919C61.5856 48.9445 64.155 52.6903 67.9339 53.2585Z" fill="#424242"/>
<path d="M68.4691 49.6986C71.2536 50.1173 73.8532 48.1797 74.2755 45.371C74.6978 42.5623 72.7829 39.946 69.9985 39.5273C67.2141 39.1086 64.6145 41.0461 64.1922 43.8549C63.7699 46.6636 65.6847 49.2799 68.4691 49.6986Z" fill="#B6B6B6"/>
<path d="M125.451 53.2887L122.559 68.6043L123.962 68.8152L123.7 70.5588L119.78 69.9694L120.042 68.2258L121.185 68.3977L123.42 52.9832L125.451 53.2887Z" fill="#424242"/>
<path d="M125.02 66.4482L125.019 66.4482C124.423 66.3585 123.866 66.7737 123.775 67.3755L123.098 71.88C123.008 72.4818 123.418 73.0425 124.014 73.1322L124.015 73.1322C124.611 73.2219 125.168 72.8067 125.259 72.2049L125.936 67.7004C126.026 67.0985 125.616 66.5379 125.02 66.4482Z" fill="#424242"/>
<path d="M119.546 65.6252L119.546 65.6252C118.949 65.5354 118.392 65.9506 118.302 66.5525L117.624 71.0569C117.534 71.6588 117.944 72.2194 118.541 72.3092L118.541 72.3092C119.137 72.3989 119.694 71.9837 119.785 71.3818L120.462 66.8774C120.553 66.2755 120.142 65.7149 119.546 65.6252Z" fill="#424242"/>
<path d="M114.146 41.7754L136.482 44.0938L133.266 41.9756L113.776 39.3423L114.146 41.7754Z" fill="#B6B6B6"/>
<path d="M106.677 37.451L109.033 14.9225L106.924 18.1716L104.263 37.831L106.677 37.451Z" fill="#B6B6B6"/>
<path d="M202.252 57.3326L199.726 55.9126L116.225 45.5863L113.008 43.4681L112.963 53.5654L180.099 56.3979L202.252 57.3326Z" fill="#B6B6B6"/>
<path d="M179.998 59.8558L180.099 56.3979L112.963 53.5654L112.569 58.6326L179.998 59.8558Z" fill="#424242"/>
<path d="M134.052 63.2C137.83 63.7682 141.388 60.9435 141.997 56.8909C142.606 52.8383 140.037 49.0924 136.258 48.5242C132.479 47.956 128.922 50.7807 128.313 54.8333C127.703 58.8859 130.273 62.6318 134.052 63.2Z" fill="#424242"/>
<path d="M134.587 59.64C137.371 60.0587 139.971 58.1212 140.393 55.3124C140.815 52.5037 138.901 49.8874 136.116 49.4687C133.332 49.0501 130.732 50.9876 130.31 53.7963C129.888 56.605 131.802 59.2214 134.587 59.64Z" fill="#B6B6B6"/>
<path d="M116.69 39.3075L115.998 41.6888L113.86 54.7465C113.701 55.7181 113.44 56.6624 113.081 57.5624C112.041 60.1847 110.196 62.4348 107.75 63.8991C105.53 65.2296 102.651 66.0567 99.119 65.3027C89.6993 63.292 90.0867 55.004 90.0867 55.004L92.6708 40.2572L93.025 38.2347L94.0078 34.637C94.0078 34.637 96.7114 24.4936 107.327 26.387C117.943 28.2804 116.69 39.3075 116.69 39.3075Z" fill="#B6B6B6"/>
<path d="M96.6403 32.804L99.3254 29.6415L102.193 29.1812L111.556 30.5891L113.73 31.8074L115.297 35.6092L111.739 33.2912L101.023 31.6799L96.6403 32.804Z" fill="white"/>
<path d="M100.794 59.0668L99.6782 69.0031L98.7785 68.8678L98.6103 69.9864L101.125 70.3645L101.293 69.2459L100.56 69.1357L102.098 59.2628L100.794 59.0668Z" fill="#424242"/>
<path d="M98.5766 67.217C98.9594 67.2746 99.2226 67.6342 99.1645 68.0203L98.73 70.91C98.672 71.2961 98.3146 71.5624 97.9319 71.5048C97.5491 71.4473 97.2859 71.0876 97.3439 70.7015L97.7784 67.8119C97.8365 67.4258 98.1938 67.1594 98.5766 67.217Z" fill="#424242"/>
<path d="M102.088 67.745C102.471 67.8025 102.734 68.1622 102.676 68.5483L102.242 71.4379C102.183 71.824 101.826 72.0904 101.443 72.0328C101.061 71.9753 100.797 71.6156 100.855 71.2295L101.29 68.3399C101.348 67.9538 101.705 67.6874 102.088 67.745Z" fill="#424242"/>
<path d="M102.86 27.0913L99.7833 34.0196L100.151 34.1847L103.227 27.2564L102.86 27.0913Z" fill="#B6B6B6"/>
<path d="M111.711 29.6014L111.309 29.62L111.636 37.196L112.038 37.1773L111.711 29.6014Z" fill="#B6B6B6"/>
</g>
<defs>
<clipPath id="clip0_36_3041">
<rect width="200" height="58" fill="white" transform="translate(8.62396) rotate(8.55093)"/>
</clipPath>
</defs>
</svg>
