<svg width="301" height="247" viewBox="0 0 301 247" fill="none" xmlns="http://www.w3.org/2000/svg">
<g clip-path="url(#clip0_36_1597)">
<path d="M240.296 44.9917C238.732 62.4224 234.278 80.8021 227.292 98.536C218.652 120.466 206.849 139.783 193.157 154.396L192.397 153.726C206.023 139.183 217.772 119.952 226.376 98.112C234.151 78.3759 238.775 57.8374 239.756 38.7262L240.727 38.8907C240.624 40.9091 240.48 42.9427 240.296 44.9917Z" fill="#6B6B6B"/>
<path d="M246.523 146.226C227.292 177.181 203.96 199.299 180.826 208.504L180.358 207.636C203.332 198.494 226.527 176.49 245.671 145.676L246.523 146.226Z" fill="#6B6B6B"/>
<path d="M239.829 66.6935C238.266 84.1242 233.811 102.504 226.825 120.238C218.185 142.168 206.382 161.485 192.69 176.098L191.93 175.428C205.556 160.884 217.306 141.653 225.909 119.814C233.684 100.078 238.309 79.5393 239.289 60.428L240.26 60.5925C240.157 62.6109 240.013 64.6446 239.829 66.6935Z" fill="#C5C5C5"/>
<path d="M23.934 111.443H11.316C11.0465 111.444 10.7802 111.383 10.5374 111.264C10.2945 111.146 10.0813 110.974 9.91366 110.76C9.74809 110.552 9.63129 110.308 9.572 110.048C9.51272 109.788 9.51249 109.517 9.57135 109.256C10.7731 103.891 10.6976 98.3143 9.35108 92.9847C9.26591 92.6337 9.28651 92.2651 9.41021 91.9261C9.53392 91.5871 9.75507 91.2934 10.0452 91.0827C16.5334 86.3613 21.6431 86.4984 25.2324 91.4905C25.3942 91.7181 25.5017 91.9805 25.5464 92.2571C26.5054 98.0904 26.5585 104.039 25.7037 109.889C25.6443 110.321 25.4323 110.716 25.1069 111.002C24.7816 111.288 24.3649 111.445 23.934 111.443Z" fill="#616161"/>
<path d="M20.0222 98.6589H15.6815C15.4415 98.6589 15.2113 98.5624 15.0416 98.3907C14.8719 98.219 14.7765 97.9861 14.7765 97.7432C14.7765 97.5004 14.8719 97.2675 15.0416 97.0958C15.2113 96.924 15.4415 96.8276 15.6815 96.8276H20.0222C20.2619 96.8281 20.4916 96.9248 20.6609 97.0964C20.8302 97.2681 20.9253 97.5007 20.9253 97.7432C20.9253 97.9858 20.8302 98.2184 20.6609 98.39C20.4916 98.5617 20.2619 98.6584 20.0222 98.6589Z" fill="white"/>
<path d="M20.0222 101.87H15.6815C15.4415 101.87 15.2113 101.774 15.0416 101.602C14.8719 101.43 14.7765 101.197 14.7765 100.955C14.7765 100.712 14.8719 100.479 15.0416 100.307C15.2113 100.135 15.4415 100.039 15.6815 100.039H20.0222C20.2619 100.039 20.4916 100.136 20.6609 100.308C20.8302 100.479 20.9253 100.712 20.9253 100.955C20.9253 101.197 20.8302 101.43 20.6609 101.601C20.4916 101.773 20.2619 101.87 20.0222 101.87Z" fill="white"/>
<path d="M20.0222 105.082H15.6815C15.4415 105.082 15.2113 104.985 15.0416 104.813C14.8719 104.642 14.7765 104.409 14.7765 104.166C14.7765 103.923 14.8719 103.69 15.0416 103.518C15.2113 103.347 15.4415 103.25 15.6815 103.25H20.0222C20.2619 103.251 20.4916 103.347 20.6609 103.519C20.8302 103.691 20.9253 103.923 20.9253 104.166C20.9253 104.408 20.8302 104.641 20.6609 104.813C20.4916 104.984 20.2619 105.081 20.0222 105.082Z" fill="white"/>
<path d="M253.254 168.444H240.636C240.366 168.445 240.1 168.383 239.857 168.265C239.614 168.147 239.401 167.974 239.233 167.761C239.068 167.552 238.951 167.309 238.892 167.049C238.832 166.788 238.832 166.518 238.891 166.257C240.093 160.892 240.017 155.315 238.671 149.985C238.586 149.634 238.606 149.266 238.73 148.927C238.854 148.588 239.075 148.294 239.365 148.083C245.853 143.362 250.963 143.499 254.552 148.491C254.714 148.719 254.821 148.981 254.866 149.258C255.825 155.091 255.878 161.04 255.023 166.89C254.964 167.322 254.752 167.717 254.427 168.003C254.101 168.289 253.685 168.445 253.254 168.444Z" fill="#616161"/>
<path d="M249.342 155.659H245.001C244.762 155.659 244.532 155.562 244.363 155.391C244.193 155.219 244.098 154.986 244.098 154.744C244.098 154.501 244.193 154.269 244.363 154.097C244.532 153.925 244.762 153.829 245.001 153.828H249.342C249.582 153.828 249.812 153.925 249.982 154.096C250.152 154.268 250.247 154.501 250.247 154.744C250.247 154.987 250.152 155.22 249.982 155.391C249.812 155.563 249.582 155.659 249.342 155.659Z" fill="white"/>
<path d="M249.342 158.871H245.001C244.762 158.87 244.532 158.774 244.363 158.602C244.193 158.43 244.098 158.198 244.098 157.955C244.098 157.713 244.193 157.48 244.363 157.308C244.532 157.137 244.762 157.04 245.001 157.04H249.342C249.582 157.04 249.812 157.136 249.982 157.308C250.152 157.479 250.247 157.712 250.247 157.955C250.247 158.198 250.152 158.431 249.982 158.603C249.812 158.774 249.582 158.871 249.342 158.871Z" fill="white"/>
<path d="M249.342 162.082H245.001C244.762 162.082 244.532 161.985 244.363 161.813C244.193 161.642 244.098 161.409 244.098 161.167C244.098 160.924 244.193 160.691 244.363 160.52C244.532 160.348 244.762 160.251 245.001 160.251H249.342C249.582 160.251 249.812 160.347 249.982 160.519C250.152 160.691 250.247 160.924 250.247 161.167C250.247 161.409 250.152 161.642 249.982 161.814C249.812 161.986 249.582 162.082 249.342 162.082Z" fill="white"/>
<path d="M79.1524 217.275L78.3655 206.201C73.2104 203.594 67.5041 202.299 61.7422 202.429C69.8484 208.769 69.1991 221.439 74.8131 230.111C76.5845 232.801 78.9317 235.055 81.6808 236.703C84.4299 238.351 87.5104 239.353 90.694 239.633L97.4403 243.56C98.212 238.399 97.8688 233.13 96.4342 228.117C94.9997 223.103 92.508 218.464 89.1307 214.519C87.2144 212.325 85.0326 210.383 82.6368 208.74C81.1622 213.024 79.1524 217.275 79.1524 217.275Z" fill="#6B6B6B"/>
<path d="M221.848 218.881L222.635 207.807C227.79 205.199 233.496 203.905 239.258 204.035C231.152 210.374 231.801 223.045 226.187 231.716C224.416 234.407 222.068 236.66 219.319 238.309C216.57 239.957 213.49 240.958 210.306 241.238L203.56 245.165C202.788 240.005 203.131 234.736 204.566 229.723C206 224.709 208.492 220.07 211.869 216.125C213.786 213.93 215.967 211.989 218.363 210.346C219.838 214.63 221.848 218.881 221.848 218.881Z" fill="#6B6B6B"/>
<path d="M146.929 93.9075C151.093 93.9075 154.467 90.4928 154.467 86.2807C154.467 82.0685 151.093 78.6538 146.929 78.6538C142.766 78.6538 139.391 82.0685 139.391 86.2807C139.391 90.4928 142.766 93.9075 146.929 93.9075Z" fill="#A5A5A5"/>
<path d="M150.799 83.102C150.686 82.9926 150.535 82.9315 150.378 82.9315C150.221 82.9315 150.071 82.9926 149.957 83.102C148.358 84.3927 146.921 85.8774 145.68 87.5227C145.375 86.9261 145.07 86.3294 144.765 85.7327C144.414 85.044 143.386 85.6524 143.738 86.3405C144.183 87.2133 144.629 88.086 145.075 88.9587C145.129 89.0478 145.204 89.1214 145.294 89.1725C145.384 89.2235 145.486 89.2504 145.589 89.2504C145.692 89.2504 145.793 89.2235 145.883 89.1725C145.973 89.1214 146.049 89.0478 146.103 88.9587C147.426 87.0735 149.007 85.3882 150.799 83.9536C150.91 83.8402 150.972 83.6872 150.972 83.5278C150.972 83.3684 150.91 83.2154 150.799 83.102Z" fill="#424242"/>
<path d="M113.2 107.908L101.832 89.8458L114.995 82.7133L118.45 96.4937L142.793 109.802C143.754 109.453 144.795 109.393 145.789 109.631C146.783 109.87 147.687 110.395 148.39 111.144C149.094 111.893 149.567 112.833 149.752 113.85C149.936 114.866 149.825 115.915 149.431 116.868C149.037 117.822 148.377 118.638 147.532 119.219C146.687 119.799 145.693 120.118 144.672 120.137C143.651 120.156 142.646 119.874 141.781 119.326C140.915 118.777 140.226 117.985 139.797 117.047L113.2 107.908Z" fill="#A0616A"/>
<path d="M93.5272 68.1824C89.9555 73.4881 102.648 92.774 102.648 92.774C103.267 91.4255 109.178 106.569 110.168 105.674C112.981 103.132 117.386 96.05 119.834 95.7343C121.235 95.5538 116.587 85.5069 116.587 85.5069C116.587 85.5069 114.463 79.5743 111.581 71.9959C110.805 69.8381 109.503 67.9139 107.794 66.4024C106.086 64.8909 104.028 63.8413 101.811 63.3513C101.811 63.3513 97.0989 62.8766 93.5272 68.1824Z" fill="#6C6C73"/>
<path d="M93.7017 241.045L99.1002 241.044L101.668 219.976L93.7005 219.977L93.7017 241.045Z" fill="#A0616A"/>
<path d="M92.3244 239.262L93.8439 239.261L99.7765 236.82L102.956 239.261H102.957C104.754 239.261 106.477 239.983 107.747 241.269C109.018 242.555 109.732 244.298 109.732 246.116V246.339L92.3247 246.34L92.3244 239.262Z" fill="#2F2E41"/>
<path d="M118.782 241.045L124.181 241.044L126.75 219.976L118.782 219.977L118.782 241.045Z" fill="#A0616A"/>
<path d="M117.405 239.262L118.925 239.261L124.858 236.82L128.037 239.261H128.038C129.835 239.261 131.558 239.983 132.828 241.269C134.099 242.555 134.813 244.298 134.813 246.116V246.339L117.406 246.34L117.405 239.262Z" fill="#2F2E41"/>
<path d="M121.119 125.864L86.0043 126.752C79.3352 130.417 79.234 138.349 81.4191 147.767C81.4191 147.767 80.6815 153.364 82.1568 154.857C83.6322 156.35 84.3698 156.35 83.6322 158.962C82.8945 161.574 86.792 165.841 86.3186 166.32C85.8452 166.799 84.7387 169.411 84.7387 169.411L88.4271 190.682C88.4271 190.682 91.0089 227.627 91.7466 228.373C92.4843 229.119 93.222 228.373 92.4843 230.239C91.7466 232.105 91.0089 231.358 91.7466 232.105C92.4 232.817 93.0156 233.565 93.5908 234.344H102.508C102.508 234.344 103.181 230.612 103.181 230.239C103.181 229.866 103.918 227.627 103.918 227.253C103.918 226.88 103.266 226.221 103.266 226.221C103.041 225.462 102.889 224.683 102.812 223.895C102.812 223.148 100.599 194.414 100.599 194.414L105.025 157.096L115.721 193.668C115.721 193.668 115.721 225.761 116.459 226.507C117.196 227.253 117.196 226.88 116.828 228.373C116.459 229.866 114.983 229.492 116.09 230.612C117.196 231.731 117.565 229.866 117.196 231.731L116.828 233.597L127.893 233.757C127.893 233.757 129.368 230.612 128.63 229.492C127.893 228.373 127.937 228.678 128.837 226.846C129.737 225.014 130.106 224.641 129.737 224.268C129.368 223.895 129.368 221.91 129.368 221.91L127.524 186.204C127.524 186.204 127.155 148.513 127.155 147.394C127.127 146.818 127.232 146.243 127.461 145.715V144.195L126.049 138.811L121.119 125.864Z" fill="#2F2E41"/>
<path d="M100.025 51.989C106.051 51.989 110.936 47.0468 110.936 40.9502C110.936 34.8537 106.051 29.9115 100.025 29.9115C93.9996 29.9115 89.1148 34.8537 89.1148 40.9502C89.1148 47.0468 93.9996 51.989 100.025 51.989Z" fill="#A0616A"/>
<path d="M105.48 59.2848C107.831 60.6986 109.237 63.2964 110.044 65.9397C111.539 70.8337 112.438 75.8935 112.723 81.0075L113.575 96.318L124.134 128.918C114.983 136.752 80.5871 130.699 80.5871 130.699C80.5871 130.699 79.5312 130.343 80.5871 129.274C81.6429 128.206 82.6708 129.153 81.6149 128.084C80.5591 127.016 81.287 128.206 81.6389 127.138C81.9909 126.07 81.6389 126.782 81.287 126.426C80.935 126.07 84.0116 122.865 84.0116 122.865L81.196 104.152L77.6765 66.4066C81.8999 61.0653 90.3937 57.9166 90.3937 57.9166L92.5884 53.9197L103.562 54.8079L105.48 59.2848Z" fill="#6C6C73"/>
<path d="M109.019 35.0855C109.867 35.7254 110.495 36.6183 110.815 37.6385C110.938 35.9713 110.946 34.2976 110.839 32.6293C110.71 31.4571 109.894 31.1934 108.95 30.8878C108.097 30.6118 107.132 30.3 106.873 29.162C103.443 25.7863 97.4729 25.9566 93.387 27.134C91.1387 27.782 89.845 28.6144 89.7293 29.1021L89.7053 29.2025L89.614 29.2487C87.881 30.1254 87.5436 32.8939 87.5659 35.0619C87.6081 39.1466 89.0021 43.7858 89.7874 44.1627C89.829 44.1826 89.8395 44.1748 89.8575 44.1597C91.0399 43.2036 92.4825 44.2323 93.1165 44.7915C93.4904 42.2528 94.6944 39.9141 96.5362 38.1489C98.3779 36.3837 100.751 35.2939 103.277 35.0535C104.102 34.9728 104.92 34.834 105.726 34.638C106.135 34.531 106.555 34.4752 106.977 34.4719C107.704 34.4607 108.416 34.6749 109.019 35.0855Z" fill="#2F2E41"/>
<path d="M176.75 134.66L197.737 113.096L203.267 95.8505L194.369 92.209C189.961 96.7076 185.423 110.479 185.423 110.479L171.098 129.931C170.984 129.974 170.87 130.02 170.757 130.073C170.098 130.388 169.53 130.87 169.108 131.472C168.687 132.074 168.426 132.776 168.35 133.51C168.275 134.244 168.388 134.985 168.679 135.662C168.97 136.339 169.428 136.928 170.01 137.374C170.591 137.819 171.277 138.105 171.999 138.204C172.722 138.303 173.458 138.211 174.136 137.938C174.813 137.665 175.41 137.22 175.868 136.646C176.326 136.072 176.629 135.388 176.75 134.66Z" fill="#FFB8B8"/>
<path d="M191.941 94.1818L203.194 97.4754L203.236 97.4672C207.373 96.6546 210.645 89.6997 212.661 84.0084C213.324 82.1312 213.258 80.0692 212.477 78.2393C211.695 76.4093 210.255 74.948 208.45 74.1507C207.113 73.5716 205.644 73.3822 204.207 73.6039C202.77 73.8256 201.423 74.4495 200.318 75.4052L194.708 80.2933L191.941 94.1818Z" fill="#A5A5A5"/>
<path d="M182.314 240.404L176.262 240.404L173.383 216.787L182.314 216.787L182.314 240.404Z" fill="#FFB8B8"/>
<path d="M183.857 238.405L182.154 238.405L175.503 235.669L171.939 238.405H171.939C169.924 238.405 167.992 239.214 166.568 240.655C165.144 242.097 164.343 244.051 164.343 246.089V246.339L183.857 246.34L183.857 238.405Z" fill="#2F2E41"/>
<path d="M209.167 240.404L203.115 240.404L200.236 216.787L209.168 216.787L209.167 240.404Z" fill="#FFB8B8"/>
<path d="M210.71 238.405L209.007 238.405L202.357 235.669L198.792 238.405H198.792C196.777 238.405 194.845 239.214 193.421 240.655C191.997 242.097 191.197 244.051 191.196 246.089V246.339L210.71 246.34L210.71 238.405Z" fill="#2F2E41"/>
<path d="M218.394 138.676C218.394 138.676 219.101 147.256 217.334 155.478C215.568 163.7 215.568 186.856 215.568 186.856L211.681 231.98L200.021 230.907L196.841 155.478L185.535 180.859L186.595 184.434L185.183 185.328C185.183 185.328 186.241 192.299 185.535 192.299C184.828 192.299 183.061 193.371 183.061 193.371L184.475 230.192L172.462 229.835L168.222 177.999L172.815 148.328L173.168 142.608L174.758 142.674L175.568 140.285L177.055 136.174L218.394 138.676Z" fill="#2F2E41"/>
<path d="M219.005 140.478L219.068 140.389C222.431 135.625 217.373 124.177 216.61 122.518L219.823 121.463L219.1 115.24L218.757 112.465L221.213 109.981L221.22 109.919L222.633 97.4067L224.688 89.0963C225.462 85.9547 225.396 82.6612 224.497 79.554C223.597 76.4467 221.897 73.6376 219.57 71.4149L214.82 66.8837L209.047 58.2418H199.738L196.546 64.3417C193.452 65.0653 190.706 66.8644 188.788 69.4256C186.869 71.9867 185.9 75.1476 186.048 78.3576L186.772 94.356L183.94 114.275L183.938 117.88L180.751 121.464L181.447 124.984L179.021 126.036L177.95 131.093C177.507 131.684 174.582 135.631 174.582 136.71C174.582 136.872 174.7 137.028 174.953 137.202C176.947 138.568 187.967 141.353 192.844 139.378C198.039 137.276 218.69 140.429 218.898 140.461L219.005 140.478Z" fill="#A5A5A5"/>
<path d="M203.19 55.452C209.999 55.452 215.519 49.8674 215.519 42.9783C215.519 36.0893 209.999 30.5046 203.19 30.5046C196.381 30.5046 190.862 36.0893 190.862 42.9783C190.862 49.8674 196.381 55.452 203.19 55.452Z" fill="#FFB8B8"/>
<path d="M202.009 55.6539C203.918 55.6342 205.823 55.4495 207.701 55.1018C209.56 54.6684 213.663 51.4587 214.781 49.5626C215.612 48.1537 216.11 45.9746 216.382 44.3947C216.75 42.3039 216.679 40.1582 216.175 38.0968C215.67 36.0354 214.744 34.1041 213.455 32.4281C212.958 31.7259 212.283 31.1727 211.501 30.8269C211.431 30.8016 211.36 30.7794 211.288 30.7607C210.155 30.4904 209.127 29.8834 208.337 29.0176C208.183 28.8423 208.017 28.6785 207.841 28.5273C206.954 27.8092 205.912 27.3135 204.8 27.0808C203.004 26.6442 200.433 27.1913 197.161 28.7081C195.518 29.4702 193.693 29.2576 192.287 28.9872C192.208 28.974 192.127 28.9818 192.052 29.01C191.977 29.0382 191.911 29.0857 191.86 29.1478C191.279 29.7285 190.503 30.0653 189.687 30.0906C189.188 30.1259 188.681 30.8398 188.071 31.7694C187.932 31.9805 187.771 32.2268 187.653 32.3771L187.63 32.0948L187.355 32.4176C186.923 32.9248 186.626 33.5343 186.489 34.1894C186.353 34.8445 186.383 35.5238 186.576 36.1641C186.769 36.8044 187.119 37.3849 187.594 37.8514C188.068 38.318 188.652 38.6554 189.29 38.8324C189.796 38.9546 190.313 39.0242 190.833 39.0401C191.149 39.0605 191.475 39.0817 191.788 39.1283C192.795 39.3095 193.737 39.7517 194.525 40.4116C195.312 41.0716 195.916 41.9267 196.279 42.8936C196.365 43.117 196.5 43.3175 196.674 43.4797C196.849 43.6418 197.058 43.7612 197.285 43.8287C197.512 43.8962 197.752 43.9099 197.985 43.8688C198.219 43.8277 198.439 43.733 198.631 43.5918C198.949 43.3273 199.326 43.1447 199.729 43.0594C200.133 42.9742 200.55 42.9889 200.947 43.1023C201.291 43.2846 201.564 43.5813 201.718 43.9426C201.904 44.3448 202.205 44.6816 202.581 44.9102C203.865 45.5379 204.027 48.4629 203.634 50.915C203.256 53.2786 202.432 55.0029 201.632 55.1079C201.016 55.1888 200.946 55.235 200.904 55.3467L200.867 55.4468L200.938 55.5375C201.283 55.6538 201.648 55.6935 202.009 55.6539Z" fill="#2F2E41"/>
<path d="M191.781 95.5159L185.854 87.8762C179.818 89.558 169.107 99.2172 169.107 99.2172L147.111 108.875C146.377 108.75 145.623 108.823 144.926 109.087C144.228 109.35 143.612 109.795 143.139 110.376C142.665 110.958 142.351 111.655 142.229 112.398C142.106 113.141 142.18 113.903 142.441 114.609C142.702 115.314 143.143 115.937 143.718 116.415C144.293 116.894 144.982 117.21 145.717 117.333C146.451 117.456 147.205 117.381 147.901 117.116C148.598 116.851 149.213 116.405 149.686 115.822L178.5 107.689L191.781 95.5159Z" fill="#FFB8B8"/>
<path d="M190.36 97.2624L199.711 86.7163L200.23 79.2436C200.327 77.7762 200.016 76.3107 199.332 75.0127C198.649 73.7147 197.62 72.636 196.363 71.8984C194.651 70.9102 192.633 70.6163 190.716 71.0761C188.799 71.536 187.125 72.7153 186.035 74.3756C182.731 79.4136 179.176 86.2251 181.005 90.0656L181.024 90.1045L190.36 97.2624Z" fill="#A5A5A5"/>
<path d="M104.178 136.902L79.875 124.309C78.1464 123.413 77.5738 121.037 78.5986 119.013L94.4444 87.7092C95.4692 85.6846 97.7093 84.7662 99.438 85.6619L123.74 98.2548C125.469 99.1505 126.042 101.526 125.017 103.551L109.171 134.855C108.146 136.879 105.906 137.798 104.178 136.902Z" fill="#616161"/>
<path d="M100.025 131.113L83.5138 122.557C81.8948 121.718 81.3584 119.493 82.3182 117.597L95.4826 91.5904C96.4424 89.6943 98.5404 88.8343 100.159 89.6732L120.102 100.007C121.721 100.846 122.257 103.071 121.297 104.967L114.146 119.095C109.87 127.541 107.237 134.85 100.025 131.113Z" fill="white"/>
<path d="M108.189 116.911L93.5642 109.333C93.3853 109.204 93.2583 109.014 93.2063 108.798C93.1543 108.582 93.1807 108.355 93.2808 108.157C93.3809 107.959 93.548 107.805 93.7515 107.721C93.955 107.638 94.1813 107.631 94.3892 107.703L109.014 115.281C109.193 115.41 109.32 115.599 109.372 115.815C109.424 116.031 109.397 116.259 109.297 116.456C109.197 116.654 109.03 116.809 108.827 116.892C108.623 116.976 108.397 116.982 108.189 116.911Z" fill="#A5A5A5"/>
<path d="M95.2716 114.282L91.9341 112.553C91.7553 112.424 91.6283 112.234 91.5762 112.018C91.5242 111.803 91.5507 111.575 91.6508 111.377C91.7509 111.18 91.9179 111.025 92.1214 110.941C92.3249 110.858 92.5513 110.851 92.7592 110.923L96.0967 112.652C96.2755 112.781 96.4025 112.971 96.4545 113.187C96.5065 113.403 96.4801 113.63 96.38 113.828C96.2799 114.026 96.1129 114.18 95.9094 114.264C95.7059 114.347 95.4795 114.354 95.2716 114.282Z" fill="#A5A5A5"/>
<path d="M99.5526 120.566L90.304 115.773C90.1251 115.644 89.9981 115.455 89.9461 115.239C89.8941 115.023 89.9205 114.795 90.0206 114.598C90.1207 114.4 90.2878 114.245 90.4913 114.162C90.6948 114.078 90.9212 114.072 91.1291 114.143L100.378 118.936C100.556 119.064 100.684 119.254 100.736 119.47C100.788 119.686 100.761 119.913 100.661 120.111C100.561 120.309 100.394 120.464 100.19 120.547C99.9868 120.63 99.7605 120.637 99.5526 120.566Z" fill="#A5A5A5"/>
<path d="M113.976 105.478L99.3515 97.8996C99.1727 97.7707 99.0457 97.581 98.9936 97.3651C98.9416 97.1493 98.9681 96.9218 99.0681 96.724C99.1682 96.5263 99.3353 96.3716 99.5388 96.2882C99.7423 96.2048 99.9687 96.1982 100.177 96.2697L114.801 103.848C114.98 103.977 115.107 104.166 115.159 104.382C115.211 104.598 115.185 104.826 115.085 105.023C114.984 105.221 114.817 105.376 114.614 105.459C114.41 105.543 114.184 105.549 113.976 105.478Z" fill="#A5A5A5"/>
<path d="M101.059 102.849L97.7214 101.12C97.5426 100.991 97.4156 100.801 97.3636 100.585C97.3115 100.37 97.338 100.142 97.4381 99.9443C97.5382 99.7465 97.7052 99.5918 97.9087 99.5084C98.1122 99.425 98.3386 99.4184 98.5465 99.4899L101.884 101.219C102.063 101.348 102.19 101.538 102.242 101.754C102.294 101.97 102.267 102.197 102.167 102.395C102.067 102.593 101.9 102.747 101.697 102.831C101.493 102.914 101.267 102.921 101.059 102.849Z" fill="#A5A5A5"/>
<path d="M105.34 109.133L96.0913 104.34C95.9125 104.211 95.7855 104.022 95.7335 103.806C95.6815 103.59 95.7079 103.362 95.808 103.165C95.9081 102.967 96.0751 102.812 96.2786 102.729C96.4821 102.645 96.7085 102.639 96.9164 102.71L106.165 107.503C106.344 107.631 106.471 107.821 106.523 108.037C106.575 108.253 106.548 108.48 106.448 108.678C106.348 108.876 106.181 109.031 105.978 109.114C105.774 109.197 105.548 109.204 105.34 109.133Z" fill="#A5A5A5"/>
<path d="M84.0391 109.649L78.5488 88.9693L93.2203 86.1594L92.4313 100.354L111.708 120.436C112.729 120.394 113.74 120.653 114.617 121.182C115.495 121.711 116.201 122.487 116.65 123.415C117.099 124.343 117.272 125.383 117.147 126.409C117.022 127.434 116.605 128.401 115.946 129.191C115.288 129.981 114.416 130.56 113.438 130.857C112.46 131.154 111.417 131.157 110.437 130.866C109.458 130.574 108.583 130 107.92 129.214C107.257 128.428 106.834 127.464 106.703 126.439L84.0391 109.649Z" fill="#A0616A"/>
<path d="M77.0475 65.7831C72.0675 69.7608 78.4594 92.0104 78.4594 92.0104C79.449 90.9116 80.599 107.152 81.8086 106.599C85.2465 105.027 91.5476 99.6075 93.9769 100.049C95.3661 100.302 93.9106 89.3073 93.9106 89.3073C93.9106 89.3073 93.6429 83.0033 93.1398 74.8992C93.0395 72.6054 92.3673 70.3745 91.1857 68.4142C90.004 66.454 88.3514 64.8281 86.3817 63.6878C86.3817 63.6878 82.0275 61.8054 77.0475 65.7831Z" fill="#6C6C73"/>
<path d="M159.91 155.549L146.649 149.213C146.365 149.078 146.115 148.881 145.918 148.634C145.721 148.388 145.581 148.099 145.51 147.791C145.438 147.489 145.435 147.174 145.5 146.871C145.566 146.567 145.698 146.283 145.888 146.039C149.729 141.071 152.367 135.262 153.59 129.077C153.682 128.604 153.934 128.177 154.302 127.871C154.671 127.564 155.133 127.396 155.61 127.395C162.374 127.419 167.429 129.917 170.634 134.821C170.803 135.076 170.915 135.366 170.962 135.669C171.009 135.972 170.991 136.282 170.907 136.578C169.051 143.05 166.227 149.197 162.533 154.804C162.258 155.228 161.842 155.537 161.36 155.674C160.877 155.811 160.363 155.767 159.91 155.549Z" fill="#616161"/>
<path d="M163.812 146.663L153.672 141.818C153.419 141.698 153.225 141.481 153.131 141.215C153.036 140.949 153.05 140.657 153.17 140.401C153.289 140.146 153.503 139.949 153.766 139.854C154.028 139.759 154.318 139.773 154.57 139.893L164.71 144.738C164.835 144.798 164.947 144.882 165.04 144.985C165.133 145.089 165.204 145.21 165.251 145.341C165.298 145.473 165.318 145.612 165.311 145.752C165.305 145.892 165.271 146.028 165.212 146.155C165.153 146.281 165.07 146.395 164.968 146.488C164.865 146.582 164.746 146.655 164.616 146.702C164.486 146.749 164.348 146.77 164.21 146.763C164.072 146.757 163.937 146.722 163.812 146.663Z" fill="white"/>
<path d="M165.387 143.288L155.247 138.443C154.995 138.323 154.8 138.106 154.706 137.84C154.612 137.574 154.626 137.281 154.745 137.026C154.864 136.771 155.078 136.574 155.341 136.479C155.604 136.384 155.893 136.398 156.145 136.518L166.285 141.363C166.537 141.483 166.732 141.7 166.826 141.966C166.92 142.232 166.906 142.524 166.787 142.78C166.668 143.035 166.454 143.232 166.191 143.327C165.928 143.422 165.639 143.408 165.387 143.288Z" fill="white"/>
<path d="M151.838 37.3375L150.894 37.4421C146.685 20.7094 138.528 9.11723 127.302 3.91847C113.032 -2.69007 95.3868 1.74769 77.6162 16.4145C59.7552 31.1561 43.9436 54.4415 33.0943 81.9824L32.1785 81.5583C43.0754 53.8972 58.9682 30.4992 76.9292 15.6756C94.9803 0.777121 112.986 -3.69318 127.629 3.0884C139.177 8.43613 147.547 20.2793 151.838 37.3375Z" fill="#C5C5C5"/>
<path d="M47.7017 59.1296C45.2333 64.3907 42.8854 69.8413 40.7232 75.3298C28.2811 106.914 21.9759 139.17 22.4911 168.612L21.5187 168.507C21.0029 138.955 27.3263 106.588 39.8074 74.9057C41.9758 69.4018 44.3303 63.9358 46.8058 58.6598L47.7017 59.1296Z" fill="#6B6B6B"/>
<path d="M47.235 80.8315C44.7665 86.0927 42.4187 91.5433 40.2565 97.0317C27.8143 128.616 21.5092 160.872 22.0244 190.313L21.052 190.208C20.5362 160.657 26.8595 128.29 39.3407 96.6077C41.509 91.1037 43.8636 85.6377 46.3391 80.3617L47.235 80.8315Z" fill="#C5C5C5"/>
<path d="M21.0987 88.7241C22.1737 87.0893 21.5374 84.7493 19.6776 83.4974C17.8178 82.2455 15.4387 82.5558 14.3637 84.1905C13.2888 85.8253 13.925 88.1654 15.7848 89.4173C17.6447 90.6692 20.0238 90.3588 21.0987 88.7241Z" fill="#A7A7A7"/>
<path d="M249.999 147.76C251.074 146.125 250.437 143.785 248.578 142.533C246.718 141.281 244.339 141.591 243.264 143.226C242.189 144.861 242.825 147.201 244.685 148.453C246.545 149.705 248.924 149.394 249.999 147.76Z" fill="#A7A7A7"/>
</g>
<defs>
<clipPath id="clip0_36_1597">
<rect width="301" height="247" fill="white"/>
</clipPath>
</defs>
</svg>
