<svg width="39" height="39" viewBox="0 0 39 39" fill="none" xmlns="http://www.w3.org/2000/svg">
<path d="M30.7445 31.7748C26.6862 30.8506 22.7705 29.3389 19.5042 26.7138C16.228 24.123 13.766 20.2295 12.61 15.7092C12.2066 20.3155 13.2175 25.3668 15.9575 29.7297C17.7333 32.6081 20.0994 35.1054 22.7385 37.2464C18.8942 37.1137 15.0573 35.8134 11.7959 33.2668C3.58086 26.8612 2.11987 15.0136 8.52954 6.80622C10.9375 3.72386 14.1128 1.59767 17.5734 0.476807C8.60332 1.47722 1.49267 8.63253 0.572791 17.6215C0.572791 17.6338 0.572791 17.6461 0.570332 17.6584C0.540817 17.9435 0.52114 18.2311 0.503923 18.5212C0.499004 18.5998 0.496544 18.6809 0.491625 18.7596C0.481787 18.9759 0.479327 19.1897 0.476868 19.4085C0.476868 19.556 0.476868 19.7059 0.476868 19.8534C0.476868 19.9911 0.481787 20.1262 0.486706 20.2614C0.496544 20.4876 0.503923 20.7113 0.52114 20.9374C0.5236 20.9792 0.528519 21.0234 0.530978 21.0652C0.941728 26.2738 3.45296 31.3004 7.89742 34.7687C10.9498 37.1505 14.494 38.468 18.0826 38.7777C18.1588 38.7851 18.2326 38.79 18.3064 38.7949C18.5597 38.8146 18.813 38.8269 19.0664 38.8367C19.1967 38.8416 19.3246 38.8466 19.455 38.8466C19.6542 38.849 19.8534 38.8466 20.0527 38.8466C20.2175 38.8441 20.3823 38.8416 20.547 38.8343C20.7118 38.8269 20.8766 38.8171 21.0414 38.8048C21.2308 38.7925 21.4202 38.7802 21.6071 38.7605C21.7301 38.7482 21.8555 38.7335 21.9785 38.7187C22.2048 38.6917 22.4311 38.6671 22.6549 38.6327C22.6746 38.6303 22.6967 38.6253 22.7164 38.6229C23.196 38.5491 23.6707 38.4508 24.138 38.3427C24.2143 38.323 24.2905 38.3083 24.3668 38.2886C26.0098 37.8437 27.6011 37.2021 29.1113 36.3762C29.2392 36.305 29.372 36.2411 29.4999 36.1698C29.9058 35.9363 30.3067 35.688 30.6977 35.425C31.957 34.5524 33.1057 33.5348 34.1215 32.3918C32.9876 32.2246 31.8587 32.0231 30.7396 31.7797L30.7445 31.7748Z" fill="white"/>
<path d="M36.0007 22.3876C29.7386 24.3024 22.3082 24.2631 15.9477 20.3081C20.6529 26.0623 28.0833 29.2971 36.104 29.7445C37.6609 27.2422 38.6545 24.3589 38.9202 21.2643C37.9806 21.6895 37.0066 22.068 36.0031 22.3851L36.0007 22.3876Z" fill="white"/>
<path d="M32.3805 17.9484C29.188 19.905 25.2428 20.7997 21.2263 20.4359C25.0264 21.7116 29.4118 21.8419 33.5119 20.5023C35.4132 19.8976 37.2185 19.025 38.923 17.9754C38.7828 16.2991 38.4286 14.6841 37.8875 13.1602C36.3085 15.0233 34.4908 16.6751 32.3805 17.9508V17.9484Z" fill="white"/>
</svg>
