<svg width="90" height="31" viewBox="0 0 90 31" fill="none" xmlns="http://www.w3.org/2000/svg">
<g clip-path="url(#clip0_120_3270)">
<path d="M23.8104 24.8387C20.6179 24.1161 17.5376 22.9341 14.9681 20.8816C12.3908 18.8561 10.4521 15.8119 9.54466 12.2777C9.22735 15.8792 10.0226 19.8285 12.178 23.2397C13.575 25.4902 15.4363 27.4427 17.5124 29.1166C14.4882 29.0129 11.4698 27.9962 8.90423 26.0052C2.44179 20.997 1.29249 11.7338 6.33473 5.31684C8.22896 2.90689 10.7269 1.24451 13.4492 0.368164C6.39278 1.15034 0.799097 6.74476 0.0754595 13.7728C0.0754595 13.7825 0.0754595 13.7921 0.0735247 13.8017C0.0503064 14.0246 0.0348275 14.2495 0.0212835 14.4762C0.0174137 14.5377 0.0154789 14.6011 0.0116092 14.6626C0.00386972 14.8318 0.00193486 14.999 0 15.17C0 15.2853 0 15.4025 0 15.5179C0 15.6255 0.00386972 15.7312 0.00773944 15.8369C0.0154789 16.0137 0.0212835 16.1886 0.0348275 16.3654C0.0367623 16.398 0.0406321 16.4326 0.0425669 16.4653C0.365689 20.5376 2.34118 24.4678 5.83747 27.1794C8.23863 29.0417 11.0268 30.0718 13.8497 30.3139C13.9097 30.3197 13.9678 30.3235 14.0258 30.3274C14.2251 30.3428 14.4244 30.3524 14.6237 30.3601C14.7262 30.3639 14.8268 30.3677 14.9294 30.3677C15.0861 30.3697 15.2428 30.3677 15.3995 30.3677C15.5292 30.3658 15.6588 30.3639 15.7885 30.3581C15.9181 30.3524 16.0477 30.3447 16.1774 30.3351C16.3263 30.3255 16.4753 30.3158 16.6224 30.3005C16.7191 30.2909 16.8178 30.2793 16.9145 30.2678C17.0926 30.2467 17.2706 30.2274 17.4466 30.2005C17.4621 30.1986 17.4795 30.1948 17.495 30.1929C17.8723 30.1352 18.2457 30.0583 18.6134 29.9738C18.6733 29.9584 18.7352 29.9469 18.7933 29.9315C20.0858 29.5836 21.3376 29.082 22.5256 28.4363C22.6263 28.3806 22.7307 28.3306 22.8313 28.2749C23.1506 28.0923 23.466 27.8982 23.7736 27.6926C24.7643 27.0103 25.6679 26.2147 26.4669 25.321C25.575 25.1904 24.6869 25.0328 23.8065 24.8425L23.8104 24.8387Z" fill="#036EB8"/>
<path d="M27.9451 17.4994C23.0189 18.9965 17.1737 18.9657 12.1702 15.8735C15.8716 20.3725 21.7168 22.9016 28.0263 23.2514C29.2511 21.295 30.0328 19.0407 30.2418 16.6211C29.5026 16.9536 28.7364 17.2496 27.947 17.4975L27.9451 17.4994Z" fill="#00A0E9"/>
<path d="M25.097 14.0284C22.5855 15.5581 19.482 16.2577 16.3224 15.9732C19.3117 16.9707 22.7616 17.0725 25.987 16.0251C27.4827 15.5524 28.9028 14.8701 30.2437 14.0495C30.1334 12.7388 29.8548 11.4762 29.4291 10.2847C28.1869 11.7414 26.7571 13.0329 25.097 14.0303V14.0284Z" fill="#00A0E9"/>
<path opacity="0.8" d="M14.9681 20.8815C12.6095 19.027 10.7869 16.3172 9.79815 13.1616C9.72269 16.3883 10.5431 19.8149 12.4412 22.8187C13.813 25.0288 15.6395 26.9429 17.6769 28.588C17.3867 28.5784 17.0945 28.5573 16.8043 28.5303C17.0365 28.7302 17.2725 28.9282 17.5105 29.1203C14.4863 29.0166 11.4679 27.9999 8.90231 26.0089C2.44181 20.9968 1.29251 11.7337 6.33475 5.31671C8.19415 2.95288 10.634 1.30972 13.2964 0.419922C6.55726 1.35008 1.25961 6.75808 0.563063 13.5248C0.563063 13.5344 0.563063 13.5421 0.563063 13.5536C0.54178 13.7727 0.524366 13.9937 0.512757 14.2147C0.508887 14.2762 0.506952 14.3358 0.505017 14.3973C0.499213 14.5626 0.495343 14.7298 0.493408 14.8951C0.493408 15.0084 0.493408 15.1218 0.493408 15.2352C0.493408 15.3409 0.497278 15.4447 0.501148 15.5485C0.506952 15.7214 0.514692 15.8944 0.528236 16.0674C0.530171 16.1 0.53404 16.1327 0.535975 16.1654C0.851357 20.1628 2.79009 24.0198 6.22446 26.6816C8.58112 28.5092 11.317 29.5182 14.0877 29.7584C14.1458 29.7642 14.2038 29.768 14.2619 29.7718C14.4573 29.7872 14.6527 29.7968 14.8481 29.8045C14.9468 29.8084 15.0474 29.8103 15.148 29.8122C15.3028 29.8141 15.4576 29.8122 15.6105 29.8122C15.7382 29.8122 15.8639 29.8084 15.9916 29.8026C16.1193 29.7968 16.2451 29.7891 16.3728 29.7795C16.5179 29.7699 16.665 29.7603 16.812 29.7469C16.9068 29.7372 17.0036 29.7257 17.0984 29.7142C17.2725 29.693 17.4486 29.6738 17.6208 29.6488C17.6363 29.6488 17.6517 29.6431 17.6672 29.6412C18.0387 29.5835 18.4044 29.5086 18.7662 29.4259C18.8243 29.4125 18.8843 29.399 18.9423 29.3856C20.2096 29.0454 21.4383 28.5534 22.605 27.9173C22.7037 27.8635 22.8062 27.8154 22.9049 27.7578C23.2203 27.579 23.5279 27.3888 23.8317 27.187C24.6521 26.622 25.4067 25.9724 26.0955 25.2594C25.3312 25.1403 24.5689 25.0057 23.8143 24.8424C20.6218 24.1198 17.5415 22.9379 14.972 20.8854L14.9681 20.8815Z" fill="url(#paint0_linear_120_3270)"/>
<path opacity="0.8" d="M27.6374 22.8322C28.7461 21.0602 29.4639 19.0289 29.6961 16.8495C29.1253 17.0878 28.5449 17.3108 27.9451 17.4991C23.3498 18.8963 17.9593 18.9597 13.1918 16.4556C16.6958 20.3338 21.9644 22.517 27.6374 22.8341V22.8322Z" fill="url(#paint1_linear_120_3270)"/>
<path d="M57.5004 27.4674C57.5004 27.9805 57.3843 28.3572 57.1522 28.5974C56.92 28.8376 56.5466 28.9568 56.0319 28.9568H54.7452V28.2668H55.8868C56.2021 28.2668 56.4227 28.2015 56.5485 28.0708C56.6743 27.9382 56.7381 27.7191 56.7381 27.4116V24.9037H54.513C54.4685 25.9549 54.1918 26.8524 53.6849 27.5961C53.2341 28.2553 52.6478 28.7338 51.9242 29.0336V28.2861C52.4621 27.969 52.8897 27.5481 53.2031 27.0253C53.5669 26.4142 53.7565 25.707 53.77 24.9056H51.9222V24.2233H53.77V23.0337H54.5188V24.2233H57.5004V27.4712V27.4674ZM56.86 23.8505H56.3879V22.7358H56.86V23.8505ZM57.7036 23.8505H57.2373V22.7358H57.7036V23.8505Z" fill="#3E3A39"/>
<path d="M61.5017 25.0017C61.5017 26.176 61.3295 27.1196 60.9851 27.8326C60.7239 28.3707 60.3234 28.83 59.7855 29.2105V28.338C60.1106 27.9805 60.3486 27.5846 60.4976 27.1503C60.6814 26.6084 60.7742 25.9069 60.7742 25.0459V23.249H61.5017V25.0017ZM65.8649 25.0171C65.6694 27.4136 64.5414 28.7454 62.475 29.0145V23.249H63.187V28.0901C64.3266 27.7326 64.9787 26.7083 65.1431 25.0171H65.8629H65.8649Z" fill="#3E3A39"/>
<path d="M72.4453 26.8735C71.6307 28.1207 70.3324 28.8453 68.5465 29.0451V28.3494C69.7539 28.1918 70.7 27.7517 71.383 27.0253C72.0661 26.2988 72.4666 25.3072 72.5827 24.0522H69.5933C69.394 24.5519 69.1154 24.9958 68.7574 25.3879C68.3898 25.7972 67.9796 26.1047 67.5288 26.3104V25.534C68.2737 25.0247 68.7768 24.3021 69.0322 23.3623H73.3953C73.3953 23.9792 73.3179 24.5865 73.1631 25.188C72.9948 25.8376 72.7529 26.4007 72.4434 26.8754L72.4453 26.8735Z" fill="#3E3A39"/>
<path d="M44.3337 17.8584V15.2063H41.8629V12.8501H47.0038V19.7629C45.4811 20.1761 43.999 20.4105 42.4569 20.4317C40.4214 20.4317 38.5814 19.8417 37.2386 18.3119C36.0525 16.957 35.5378 15.1505 35.5378 13.344C35.5378 11.7931 35.9326 10.2211 36.8826 8.88732C38.1286 7.08081 40.0848 6.27557 42.3389 6.25635C43.7436 6.25635 45.009 6.51195 46.3131 6.96358V9.39852H45.9783C44.9703 8.88924 43.5656 8.65285 42.4588 8.65285C41.1547 8.65285 39.9087 9.14292 39.1386 10.223C38.5446 11.0667 38.2873 12.3447 38.2873 13.3652C38.2873 16.2709 39.8294 18.0582 42.8342 18.0582C43.3489 18.0582 43.881 17.9987 44.3356 17.8622L44.3337 17.8584Z" fill="#3E3A39"/>
<path d="M65.5475 6.46777H68.2176V17.1896C68.2176 17.524 68.4943 17.818 68.8309 17.818H75.1599V20.2126H68.2756C66.7722 20.2126 65.5475 18.9961 65.5475 17.5221V6.46777Z" fill="#3E3A39"/>
<path d="M80.471 11.8892L85.67 6.46777H89.1102L83.4159 12.1237L89.7816 20.2126H86.4014L81.5971 13.9091L80.471 15.0679V20.2126H77.8009V6.46777H80.471V11.8892Z" fill="#3E3A39"/>
<path d="M63.005 20.2125L58.162 7.52852C57.8853 6.80207 57.1733 6.31201 56.3433 6.31201C55.5132 6.31201 54.7818 6.78286 54.5051 7.52852L49.7222 20.2125H52.371L53.4855 17.1703C54.3368 16.709 55.3158 16.44 56.3703 16.44C57.33 16.44 58.2317 16.661 59.0269 17.0511L60.1801 20.2125H63.0069H63.005ZM56.3645 14.5412C55.6235 14.5412 54.9269 14.6911 54.3 14.9391L56.2813 9.53106L58.222 14.8545C57.6512 14.6546 57.0243 14.5393 56.3626 14.5393L56.3645 14.5412Z" fill="#3E3A39"/>
</g>
<defs>
<linearGradient id="paint0_linear_120_3270" x1="3.97229" y1="24.533" x2="21.556" y2="9.67743" gradientUnits="userSpaceOnUse">
<stop stop-color="white"/>
<stop offset="0.01" stop-color="white" stop-opacity="0.86"/>
<stop offset="0.04" stop-color="white" stop-opacity="0.6"/>
<stop offset="0.06" stop-color="white" stop-opacity="0.39"/>
<stop offset="0.08" stop-color="white" stop-opacity="0.22"/>
<stop offset="0.1" stop-color="white" stop-opacity="0.1"/>
<stop offset="0.12" stop-color="white" stop-opacity="0.03"/>
<stop offset="0.13" stop-color="white" stop-opacity="0"/>
</linearGradient>
<linearGradient id="paint1_linear_120_3270" x1="21.4691" y1="16.15" x2="21.1389" y2="22.4942" gradientUnits="userSpaceOnUse">
<stop offset="0.7" stop-color="white" stop-opacity="0"/>
<stop offset="0.72" stop-color="white" stop-opacity="0.03"/>
<stop offset="0.76" stop-color="white" stop-opacity="0.1"/>
<stop offset="0.81" stop-color="white" stop-opacity="0.22"/>
<stop offset="0.86" stop-color="white" stop-opacity="0.39"/>
<stop offset="0.91" stop-color="white" stop-opacity="0.6"/>
<stop offset="0.97" stop-color="white" stop-opacity="0.86"/>
<stop offset="1" stop-color="white"/>
</linearGradient>
<clipPath id="clip0_120_3270">
<rect width="90" height="29.9996" fill="white" transform="translate(0 0.368164)"/>
</clipPath>
</defs>
</svg>
