<svg xmlns="http://www.w3.org/2000/svg" width="6" height="700" viewBox="0 0 6 700" fill="none">
                                    <path d="M3 0.333333C1.52724 0.333333 0.333333 1.52724 0.333333 3C0.333333 4.47276 1.52724 5.66667 3 5.66667C4.47276 5.66667 5.66667 4.47276 5.66667 3C5.66667 1.52724 4.47276 0.333333 3 0.333333ZM3.00002 455.333C1.52726 455.333 0.333353 456.527 0.333353 458C0.333353 459.473 1.52726 460.667 3.00002 460.667C4.47278 460.667 5.66669 459.473 5.66669 458C5.66669 456.527 4.47278 455.333 3.00002 455.333ZM2.5 3L2.50002 458L3.50002 458L3.5 3L2.5 3Z" fill="white" />
                                </svg>